<?xml version="1.0" standalone="no"?>
<!DOCTYPE svg PUBLIC "-//W3C//DTD SVG 1.1//EN" "http://www.w3.org/Graphics/SVG/1.1/DTD/svg11.dtd" >
<svg>
<metadata>
Created by FontForge 20090914 at Tue Nov 15 22:29:19 2016
 By www-data
\251 M Klein   9.03
</metadata>
<defs>
<font id="GeosansLight" horiz-adv-x="392" >
  <font-face 
    font-family="GeosansLight"
    font-weight="500"
    font-stretch="normal"
    units-per-em="1000"
    panose-1="2 0 6 3 2 0 0 2 0 3"
    ascent="800"
    descent="-200"
    x-height="413"
    cap-height="714"
    bbox="-38 -212 1087 903"
    underline-thickness="19"
    underline-position="-124"
    unicode-range="U+0005-U+E00B"
  />
<missing-glyph horiz-adv-x="1000" 
 />
    <glyph glyph-name=".notdef" horiz-adv-x="1000" 
 />
    <glyph glyph-name="breve" horiz-adv-x="362" 
d="M296 531l-18 22c-24.667 -24.667 -53 -37 -85 -37c-34.667 0 -65 13 -91 39l-21 -24c27.333 -29.333 63.333 -44 108 -44c46 0 81.667 14.667 107 44z" />
    <glyph glyph-name="dotaccent" horiz-adv-x="311" 
d="M155 529c-5.33301 22 -16.333 33 -33 33c-22 -4 -33 -15 -33 -33c0.666992 -10 4 -18 10 -24c8 -6 15.667 -9 23 -9c22 0 33 11 33 33z" />
    <glyph glyph-name="ring" horiz-adv-x="296" 
d="M236 538c0 22 -8.33301 41.333 -25 58s-36 25 -58 25s-41.333 -8.33301 -58 -25s-25 -36 -25 -58s8.33301 -41.333 25 -58s36 -25 58 -25s41.333 8.33301 58 25s25 36 25 58zM215 539c0 -16 -6.33301 -30.333 -19 -43s-27 -19 -43 -19s-30.333 6.33301 -43 19
s-19 27 -19 43s6.33301 30.333 19 43s27 19 43 19s30.333 -6.33301 43 -19s19 -27 19 -43z" />
    <glyph glyph-name="ogonek" horiz-adv-x="265" 
d="M194 -126l0.000976562 39.999l-23 -15c-10 -4 -18.333 -6 -25 -6c-11.333 0 -19.333 3.33301 -24 10c-4 8.66699 -6 17.334 -6 26.001c0 10.667 2 21.667 6 33l19 38h-46c-12.667 -24 -19.334 -38 -20.001 -42l-5 -22v-22c0 -18 5.66699 -33.333 17 -46
c10.667 -12 25 -18 43 -18l19 2l18 6c12 4 21 9.33301 27 16z" />
    <glyph glyph-name="caron" horiz-adv-x="378" 
d="M309 559l-21 22l-100 -99l-100 99l-21 -22l121 -120z" />
    <glyph glyph-name="dotlessi" unicode="&#xd;" horiz-adv-x="184" 
d="M113 0v413h-41v-413h41z" />
    <glyph glyph-name="fraction" horiz-adv-x="822" 
d="M804 -101l-161.001 161c94.667 68 142 167 142 297c0 108 -34.333 196.333 -103 265c-69.333 68 -157.666 102 -264.999 102c-108 0 -196.333 -34.333 -265 -103c-68 -68 -102 -156 -102 -264s34.333 -196.333 103 -265c68 -68 156 -102 264 -102
c72 0 136.333 16.333 193 49l139 -140h55zM728.999 248c-20 -65.333 -58.668 -117.998 -116.001 -157.998l-132 132h-53l151 -152c-48 -26 -102 -39 -162 -39c-95.333 0 -173.666 30.667 -234.999 92c-60.667 60.667 -91 138.667 -91 234s30.667 173.666 92 234.999
c60 61.333 138 92 234 92s174.667 -30.667 236 -92c58.667 -58.667 89 -133.334 91 -224.001l-5 5c-16.667 16.667 -36 25 -58 25s-41.333 -8.33301 -58 -25s-25 -36 -25 -58s8.33301 -41.333 25 -58s36 -25 58 -25c18.667 0 34.667 5.33301 48 16zM742.998 322.002
c-0.666992 -4 -1.16699 -8.16699 -1.5 -12.5s-0.833008 -8.5 -1.5 -12.5c-2.66699 -8 -8 -16 -16 -24c-12.667 -12.667 -27 -19 -43 -19s-30.333 6.33301 -43 19s-19 27 -19 43s6.33301 30.333 19 43s27 19 43 19s30.333 -6.33301 43 -19c10.667 -10.667 17 -23 19 -37z
M403.998 315.002c0 22 -8.33301 41.333 -25 58s-36 25 -58 25s-41.333 -8.33301 -58 -25s-25 -36 -25 -58s8.33301 -41.333 25 -58s36 -25 58 -25s41.333 8.33301 58 25s25 36 25 58zM382.998 316.002c0 -16 -6.33301 -30.333 -19 -43s-27 -19 -43 -19
s-30.333 6.33301 -43 19s-19 27 -19 43s6.33301 30.333 19 43s27 19 43 19s30.333 -6.33301 43 -19s19 -27 19 -43zM308.998 299.002c0 -6 2.16699 -11.167 6.5 -15.5s9.5 -6.5 15.5 -6.5s11.167 2.16699 15.5 6.5s6.5 9.5 6.5 15.5s-2.16699 11.167 -6.5 15.5
s-9.5 6.5 -15.5 6.5s-11.167 -2.16699 -15.5 -6.5s-6.5 -9.5 -6.5 -15.5zM669.998 296.002c0 -6 2.16699 -11.167 6.5 -15.5s9.5 -6.5 15.5 -6.5s11.167 2.16699 15.5 6.5s6.5 9.5 6.5 15.5s-2.16699 11.167 -6.5 15.5s-9.5 6.5 -15.5 6.5s-11.167 -2.16699 -15.5 -6.5
s-6.5 -9.5 -6.5 -15.5z" />
    <glyph glyph-name="fi" horiz-adv-x="471" 
d="M442 372l-0.000976562 41h-126v237c0 30 -12 54 -36 72c-21.333 16 -47.666 24 -78.999 24c-32 0 -59 -9 -81 -27s-33 -42.667 -33 -74v-232h-56v-41h56v-372h41v372h148v-372h40v372h126zM275.999 413h-148v225c0 45.333 24.333 68 73 68c50 0 75 -22 75 -66v-227z" />
    <glyph glyph-name="fl" horiz-adv-x="459" 
d="M432 696l0.000976562 39.001l-26 4c-2.66699 0.666992 -6 1.16699 -10 1.5s-9 0.5 -15 0.5c-20 0 -38.667 -4.66699 -56 -14c-20.667 -10.667 -32 -25.334 -34 -44.001c-18 24.667 -48 37 -90 37c-34.667 0 -62.334 -10 -83.001 -30s-31 -47 -31 -81v-196h-56v-41h56
v-372h41v372h153v-372h40v372h98v41h-98v225c0 24.667 6.33301 42 19 52c10 8 23.333 12 40 12l33 -3zM281.001 413.001h-153v191c0 50.667 24.333 76 73 76c18 0 34.333 -4.33301 49 -13c14.667 -8 25 -19 31 -33v-221z" />
    <glyph glyph-name="space" unicode=" " horiz-adv-x="255" 
 />
    <glyph glyph-name="exclam" unicode="!" horiz-adv-x="204" 
d="M122 148v566h-40v-566h40zM139 32c-2 11.333 -5.66797 19.667 -11.001 25c-7.33301 7.33301 -15.666 11 -24.999 11c-24 -4 -36 -16 -36 -36c0 -24 12 -36 36 -36c24 4 36 16 36 36z" />
    <glyph glyph-name="quotedbl" unicode="&#x22;" horiz-adv-x="270" 
d="M214 727h-41l11 -160h20zM102 727h-41l10 -160h21z" />
    <glyph glyph-name="numbersign" unicode="#" horiz-adv-x="541" 
d="M522 516h-131l30 127h-24l-31 -127h-139l30 127h-24l-31 -127h-139l-8 -24h141l-28 -115h-128l-8 -25h130l-30 -126h24l31 126h140l-33 -131h25l32 131h134l8 25h-136l28 115h129zM361 492l-28 -115h-140l27 115h141z" />
    <glyph glyph-name="dollar" unicode="$" horiz-adv-x="474" 
d="M447 195c0 92.667 -57.999 161.668 -173.999 207.001v275c48.667 -6.66699 84 -30 106 -70l38 17c-31.333 62 -79.333 93 -144 93v53h-40v-53c-46 0 -84 -16 -114 -48c-30 -31.333 -45 -70 -45 -116c0 -49.333 15 -88.333 45 -117
c22.667 -22.667 60.667 -43.334 114 -62.001v-340c-81.333 0 -133.333 42.333 -156 127l-41 -14c12 -48.667 35.333 -86.667 70 -114c35.333 -27.333 77.666 -41 126.999 -41v-53h40v54c56.667 0 100.667 20 132 60c28 36 42 83.333 42 142zM233.001 418.001
c-36.667 14.667 -63.667 30.333 -81 47c-24 22 -36 50 -36 84c0 34.667 10.667 63.667 32 87c20 22 48.333 35.667 85 41v-259zM406.001 195c0 -46 -10.333 -83.333 -31 -112c-22.667 -32.667 -56.667 -49 -102 -49v324c88.667 -36 133 -90.333 133 -163z" />
    <glyph glyph-name="percent" unicode="%" horiz-adv-x="531" 
d="M292 572c0 34 -12.334 63.332 -37.001 87.999s-54 37 -88 37s-63.333 -12.333 -88 -37c-24 -25.333 -36 -54.666 -36 -87.999c0 -32 12.667 -60.667 38 -86c24.667 -24.667 53.334 -37 86.001 -37c34 0 63.667 12 89 36c24 22.667 36 51.667 36 87zM489.999 713.999h-40
l-388 -714h40zM491.999 114.999c0 34 -12.334 63.332 -37.001 87.999s-54 37 -88 37s-63.333 -12.333 -88 -37c-24 -25.333 -36 -54.666 -36 -87.999c0 -32 12.667 -60.667 38 -86c24.667 -24.667 53.334 -37 86.001 -37c34 0 63.667 12 89 36c24 22.667 36 51.667 36 87z
M250.998 571.998c0 -22 -8.33398 -41.333 -25.001 -58c-19.333 -16 -39 -24 -59 -24c-22 0 -41.333 8.33301 -58 25c-16.667 16 -25 35 -25 57c0 22.667 8.33301 42.334 25 59.001c16 16.667 35.333 25 58 25s42.334 -8.33301 59.001 -25s25 -36.334 25 -59.001z
M450.997 114.998c0 -21.333 -8.66895 -40.667 -26.002 -58c-17.333 -16 -36.666 -24 -57.999 -24c-22 0 -41.333 8.33301 -58 25c-16.667 16 -25 35 -25 57c0 22.667 8.33301 42.334 25 59.001c16 16.667 35.333 25 58 25s42.334 -8.33301 59.001 -25s25 -36.334 25 -59.001
z" />
    <glyph glyph-name="ampersand" unicode="&#x26;" horiz-adv-x="602" 
d="M563 205l-21.999 29.001l-104 -85l-156 237l73 50c58.667 40 88 83.333 88 130c0 45.333 -14 80 -42 104s-65 36 -111 36c-40 0 -74.333 -13.333 -103 -40c-28 -26 -42 -59 -42 -99c0 -21.333 5 -42.333 15 -63l30 -51l40 -60l-113 -83
c-52.667 -48.667 -79 -101 -79 -157c0 -46.667 15 -84.334 45 -113.001c30.667 -29.333 70 -44 118 -44c69.333 0 144.666 32.667 225.999 98l63 -94h47l-79 119zM405.001 566.001c-0.666992 -12 -2.33398 -20.998 -5.00098 -26.998l-14 -26
c-6.66699 -9.33301 -14.167 -17.833 -22.5 -25.5s-17.166 -14.834 -26.499 -21.501l-76 -51l-39 59l-28 45c-7.33301 12.667 -11 28.667 -11 48c0 28.667 10.667 53 32 73c21.333 19.333 46.333 29 75 29c34.667 0 62.667 -8.66699 84 -26
c20.667 -16.667 31 -42.334 31 -77.001zM406.001 124.003c-11.333 -9.33301 -21.666 -17.166 -30.999 -23.499l-25 -16.5c-51.333 -32.667 -101 -49 -149 -49c-36 0 -65.333 11 -88 33c-23.333 21.333 -35 49.666 -35 84.999c0 44.667 21.333 88 64 130
c8.66699 8.66699 21.667 19.5 39 32.5s39.666 28.833 66.999 47.5z" />
    <glyph glyph-name="quotesingle" unicode="'" horiz-adv-x="164" 
d="M103 714h-42l10 -159h22z" />
    <glyph glyph-name="parenleft" unicode="(" horiz-adv-x="184" 
d="M148 -62c-50 132 -75.0039 268.001 -75.0039 408.001c0 23.333 1.33301 49.666 4 78.999s6.66699 61.333 12 96c6.66699 44 14.834 85.167 24.501 123.5s21.167 74.833 34.5 109.5h-35c-50 -133.333 -75 -269.333 -75 -408c0 -26 1.33301 -54 4 -84s6.66699 -62 12 -96
l8.5 -43l5.5 -27c2.66699 -12.667 4.83398 -23.334 6.50098 -32.001s3.16699 -15.667 4.5 -21c4.66699 -18 9.83398 -35.667 15.501 -53s11.834 -34.666 18.501 -51.999h35z" />
    <glyph glyph-name="parenright" unicode=")" horiz-adv-x="194" 
d="M164 346c0 29.333 -1.16699 58.498 -3.5 87.498s-5.83301 58.5 -10.5 88.5c-13.333 82 -33.666 159.333 -60.999 232h-35c50 -137.333 75 -273.333 75 -408c0 -25.333 -1.33301 -52.666 -4 -81.999s-6.66699 -60.666 -12 -93.999
c-6.66699 -42 -14.834 -82.167 -24.501 -120.5s-21.167 -75.5 -34.5 -111.5h35c50 128.667 75 264.667 75 408z" />
    <glyph glyph-name="asterisk" unicode="*" horiz-adv-x="289" 
d="M273 557c-4 19.333 -20.665 34.332 -49.998 44.999c-6.66699 3.33301 -15.834 6.33301 -27.501 9s-25.834 5.66699 -42.501 9l74 23c30.667 15.333 46 28.666 46 39.999c-1.33301 15.333 -9 23 -23 23c-33.333 -7.33301 -67.333 -32.666 -102 -75.999c6 10 9 19 9 27
l7 31l5 41c0 25.333 -8.66699 38 -26 38c-18 -3.33301 -27 -16 -27 -38l6 -49l15 -50l-47 48c-18.667 18.667 -37 28 -55 28c-14.667 -4 -22 -12.333 -22 -25c0 -16 15.667 -30 47 -42l33 -12l39 -7c-79.333 -20 -119 -40.667 -119 -62c0 -16 7 -24 21 -24
c21.333 4 40 14 56 30l47 45l-19 -66c-2 -5.33301 -3 -16 -3 -32c0 -25.333 9.33301 -37.666 28 -36.999c16 0.666992 24 13.667 24 39l-5 44l-14 52l49 -47c18 -17.333 35.667 -26 53 -26c15.333 0 23 7 23 21z" />
    <glyph glyph-name="plus" unicode="+" horiz-adv-x="378" 
d="M316 244v41h-102v102h-46v-102h-102v-41h102v-102h46v102h102z" />
    <glyph glyph-name="comma" unicode="," horiz-adv-x="179" 
d="M155 54l-35 15l-74 -163l13 -9z" />
    <glyph glyph-name="hyphen" unicode="-" horiz-adv-x="271" 
d="M229 244v41h-211v-41h211z" />
    <glyph glyph-name="period" unicode="." horiz-adv-x="113" 
d="M84 27c-5.33301 22 -16.333 33 -33 33c-22 -4 -33 -15 -33 -33c0.666992 -10 4 -18 10 -24c8 -6 15.667 -9 23 -9c22 0 33 11 33 33z" />
    <glyph glyph-name="slash" unicode="/" horiz-adv-x="287" 
d="M272 729h-39l-210 -729h41z" />
    <glyph glyph-name="zero" unicode="0" horiz-adv-x="556" 
d="M542 363c0 94 -19.667 176.332 -59 246.999c-48 84.667 -115.667 127 -203 127s-155 -42.333 -203 -127c-39.333 -69.333 -59 -151.666 -59 -246.999c0 -94.667 19.667 -176.667 59 -246c48 -84.667 115.667 -127 203 -127c88 0 156 42 204 126
c38.667 68.667 58 151 58 247zM499 362.999c0 -91.333 -18.3301 -167.334 -54.9971 -228.001c-40.667 -68.667 -95.334 -103 -164.001 -103c-74 0 -131 38.667 -171 116c-31.333 61.333 -47 133 -47 215c0 90 18.333 166.333 55 229c41.333 69.333 95.666 104 162.999 104
c75.333 0 132.666 -38.667 171.999 -116c31.333 -61.333 47 -133.666 47 -216.999z" />
    <glyph glyph-name="one" unicode="1" horiz-adv-x="545" 
d="M336 0v714h-135l-27 -41h121v-673h41z" />
    <glyph glyph-name="two" unicode="2" horiz-adv-x="545" 
d="M494 530c0 56.667 -20.332 102.332 -60.999 136.999c-40.667 35.333 -89.334 53 -146.001 53c-66 0 -119 -22 -159 -66c-30 -34 -47.333 -68.333 -52 -103h45c7.33301 30.667 20.333 56.334 39 77.001c30.667 34.667 73 52 127 52c44 0 82.667 -14.333 116 -43
c33.333 -29.333 50 -65 50 -107c0 -43.333 -14 -85 -42 -125l-350 -405h432v41h-342l205 232l46 53.5l27 32.5c43.333 56 65 113 65 171z" />
    <glyph glyph-name="three" unicode="3" horiz-adv-x="545" 
d="M474 193c0 100 -46.6641 163.998 -139.997 191.998c89.333 20 134 74.333 134 163c0 55.333 -18.333 99.333 -55 132c-36.667 33.333 -82.334 50 -137.001 50c-52.667 0 -96.334 -15 -131.001 -45c-34.667 -29.333 -55 -70 -61 -122h47c16.667 84 65 126 145 126
c42 0 76.333 -13.333 103 -40c26.667 -26 40 -59.667 40 -101c0 -43.333 -12.333 -76.333 -37 -99c-25.333 -23.333 -59 -35 -101 -35h-42v-59h42c30.667 0 60.667 -11.667 90 -35c38.667 -30.667 58 -73 58 -127c0 -43.333 -15.667 -80.666 -47 -111.999
c-31.333 -30 -69 -45 -113 -45c-34 0 -65.333 11 -94 33c-29.333 22 -48.333 49.333 -57 82h-44c11.333 -49.333 34 -87.666 68 -114.999c35.333 -27.333 77.666 -41 126.999 -41c59.333 0 108.333 18.333 147 55c38.667 36 58 83.667 58 143z" />
    <glyph glyph-name="four" unicode="4" horiz-adv-x="545" 
d="M538 136v40h-83v548l-409 -588h367v-136h42v136h83zM413 176h-294l294 421v-421z" />
    <glyph glyph-name="five" unicode="5" horiz-adv-x="545" 
d="M514 255c0 76 -26.667 136.669 -80 182.002c-52 44 -110 64 -174 60l-42 -3l-40 -5l43 184h242v41h-274l-71 -277c24.667 9.33301 48.334 14 71.001 14c10 2.66699 18 4 24 4h15l32 1c55.333 2 104 -15 146 -51c44.667 -38 67 -88 67 -150
c0 -63.333 -20 -116.333 -60 -159c-40 -43.333 -91 -65 -153 -65c-52 0 -94.333 12 -127 36c-26 19.333 -48.667 48.666 -68 87.999l-38 -15c42 -100 119.667 -150 233 -150c75.333 0 136.666 25 183.999 75c46.667 49.333 70 112.666 70 189.999z" />
    <glyph glyph-name="six" unicode="6" horiz-adv-x="545" 
d="M520 229c0 69.333 -23.6699 127.664 -71.0029 174.997c-46.667 46.667 -105 70 -175 70l-45 -4l-43 -12l-42 -21l152 277h-47l-179 -321c-6 -11.333 -11.667 -23.166 -17 -35.499s-9.66602 -25.5 -12.999 -39.5c-3.33301 -11.333 -5.66602 -20.666 -6.99902 -27.999
s-2.33301 -13 -3 -17s-1 -8 -1 -12v-10v-22c0 -72 22.667 -131.333 68 -178c45.333 -45.333 104.333 -68 177 -68c70.667 0 129.334 23.333 176.001 70s70 105.334 70 176.001zM479.997 228.998c0 -58.667 -19.667 -107.667 -59 -147s-88.333 -59 -147 -59
s-107.667 19.667 -147 59c-38.667 38.667 -58 87.667 -58 147c0 56.667 20 105 60 145s88.333 60 145 60c57.333 0 106 -20.333 146 -61c40 -41.333 60 -89.333 60 -144z" />
    <glyph glyph-name="seven" unicode="7" horiz-adv-x="545" 
d="M533 714h-502v-41h426l-433 -657l34 -26z" />
    <glyph glyph-name="eight" unicode="8" horiz-adv-x="545" 
d="M482 190c0 52.667 -16.332 96.3311 -48.999 130.998c-22.667 24.667 -52 43.667 -88 57c35.333 11.333 62.666 32 81.999 62c20 30.667 30 64.667 30 102c0 54.667 -17 99 -51 133s-78.333 51 -133 51c-54 0 -98 -17.333 -132 -52c-34 -34 -51 -78 -51 -132
c0 -35.333 9.66699 -68.666 29 -99.999c20 -32.667 46.667 -54 80 -64c-42 -16 -74.667 -40.333 -98 -73c-23.333 -33.333 -35 -71.666 -35 -114.999c0 -60 19.667 -109 59 -147c39.333 -37.333 89.333 -56 150 -56c60 0 109.667 19 149 57c38.667 38 58 86.667 58 146z
M417.001 541.997c0 -41.333 -13.666 -75.667 -40.999 -103c-13.333 -13.333 -28.5 -24 -45.5 -32s-36.167 -12 -57.5 -12c-20.667 0 -39.5 4.33301 -56.5 13s-32.167 19.667 -45.5 33c-27.333 27.333 -41 61 -41 101c0 41.333 13.667 75.666 41 102.999s61.333 41 102 41
c41.333 0 75.666 -13.667 102.999 -41s41 -61.666 41 -102.999zM442.002 189.996c0 -47.333 -16.334 -86.3311 -49.001 -116.998c-31.333 -30.667 -71.333 -46 -120 -46c-48 0 -88 16 -120 48c-31.333 31.333 -47 69.666 -47 114.999c0 44.667 16.667 83.667 50 117
c16.667 16 34.667 28.833 54 38.5s40.333 14.5 63 14.5c23.333 0 44.833 -4.83301 64.5 -14.5s37.834 -22.834 54.501 -39.501c33.333 -32 50 -70.667 50 -116z" />
    <glyph glyph-name="nine" unicode="9" horiz-adv-x="545" 
d="M521 473c0 70.667 -23.333 129.336 -70 176.003c-46 46.667 -104.333 70 -175 70s-129.334 -23.333 -176.001 -70s-70 -105.334 -70 -176.001s23.333 -129.334 70 -176.001c46.667 -46 105.334 -69 176.001 -69l45 4l43 12l42 21l-142 -257l38 -18l178 319
c6.66699 12 12.5 24.167 17.5 36.5s9.16699 25.166 12.5 38.499c4 15.333 6.83301 30.5 8.5 45.5s2.5 29.5 2.5 43.5zM481 473.002c0 -58 -19.667 -106.667 -59 -146s-88 -59 -146 -59c-59.333 0 -108.333 20 -147 60c-39.333 40.667 -59 89 -59 145
c0 58.667 19.667 107.667 59 147s88.333 59 147 59s107.667 -19.667 147 -59c38.667 -38.667 58 -87.667 58 -147z" />
    <glyph glyph-name="colon" unicode=":" horiz-adv-x="163" 
d="M117 322c-5.33301 22 -16.333 33 -33 33c-22 -4 -33 -15 -33 -33c0.666992 -10 4 -18 10 -24c8 -6 15.667 -9 23 -9c22 0 33 11 33 33zM117 27c-5.33301 22 -16.333 33 -33 33c-22 -4 -33 -15 -33 -33c0.666992 -10 4 -18 10 -24c8 -6 15.667 -9 23 -9c22 0 33 11 33 33z
" />
    <glyph glyph-name="semicolon" unicode=";" horiz-adv-x="204" 
d="M136 322c-5.33301 22 -16.333 33 -33 33c-22 -4 -33 -15 -33 -33c0.666992 -10 4 -18 10 -24c8 -6 15.667 -9 23 -9c22 0 33 11 33 33zM150 54l-35 15l-74 -163l13 -9z" />
    <glyph glyph-name="less" unicode="&#x3c;" horiz-adv-x="316" 
d="M283 110v45l-178 108l178 108v45l-251 -153z" />
    <glyph glyph-name="equal" unicode="=" horiz-adv-x="296" 
d="M263 305v41h-226v-41h226zM263 183v40h-226v-40h226z" />
    <glyph glyph-name="greater" unicode="&#x3e;" horiz-adv-x="316" 
d="M297 263l-251 153v-45l177 -108l-177 -108v-45z" />
    <glyph glyph-name="question" unicode="?" horiz-adv-x="469" 
d="M432 572c0 50 -18.999 88.667 -56.999 116c-34 24 -77 36 -129 36c-96.667 0 -163.334 -44.333 -200.001 -133l38 -17c19.333 33.333 38 57.333 56 72c30.667 25.333 66 38 106 38c38.667 0 71.667 -8.66699 99 -26c30.667 -20 46 -48.667 46 -86
c0 -28.667 -11.667 -56.667 -35 -84c-5.33301 -6.66699 -14.333 -15 -27 -25l-48 -37l-85 -63c-46.667 -34.667 -70 -73.667 -70 -117c0 -30 10.667 -53.667 32 -71s45 -25 71 -23l29 2l23 6c16 7.33301 27.667 14.666 35 21.999l-24 33c-17.333 -14 -38.333 -21 -63 -21
c-16.667 0 -30.667 4.66699 -42 14s-17 22 -17 38c0 34.667 16.667 64 50 88l84 61l57 42c14 10.667 22.667 18.334 26 23.001c30 34 45 71.333 45 112zM259.001 32c-4 23.333 -15.667 35 -35 35c-23.333 -4 -35 -15.667 -35 -35c4 -23.333 15.667 -35 35 -35
c23.333 0 35 11.667 35 35z" />
    <glyph glyph-name="at" unicode="@" horiz-adv-x="596" 
d="M540 105c16 28 24.0029 62.668 24.0029 104.001c0 70.667 -26.667 129.667 -80 177c-51.333 45.333 -113 68 -185 68c-74 0 -136.667 -24.667 -188 -74s-77 -110.333 -77 -183c0 -71.333 22 -131 66 -179c47.333 -53.333 113.333 -80 198 -80c41.333 0 78 6.33301 110 19
c32.667 12 56.667 26.667 72 44l-19 19c-16 -18.667 -41.333 -33.334 -76 -44.001c-30 -8 -58.333 -12 -85 -12c-70.667 0 -128.334 21.333 -173.001 64c-44.667 42 -67 98.333 -67 169c0 65.333 23.333 120 70 164c45.333 44.667 101.666 67 168.999 67
c66 0 121.667 -20.333 167 -61c48 -42 72 -94.667 72 -158c0 -34.667 -6.66699 -63 -20 -85c-16.667 -29.333 -37.334 -44 -62.001 -44c-13.333 0 -24 5 -32 15c-10 14 -14 32 -12 54l13 163h-25l-4 -54c-18 40 -52.333 60 -103 60c-39.333 0 -72.333 -13 -99 -39
c-26 -26 -39 -58.667 -39 -98s10 -70.333 30 -93c20.667 -23.333 50 -35 88 -35c54 0 91.667 19 113 57c2 -12.667 7.66699 -24.667 17 -36c12 -14 28.333 -21 49 -21c38.667 0 68 17.333 88 52zM359.003 265.001c16 -18 24.001 -41 24.001 -69c0 -34 -10 -62 -30 -84
c-18.667 -21.333 -45.334 -32 -80.001 -32c-60.667 0 -91 33.667 -91 101c0 30.667 10.667 56.667 32 78c22 22 48.333 33 79 33c28 0 50 -9 66 -27z" />
    <glyph glyph-name="A" unicode="A" horiz-adv-x="633" 
d="M602 0l-286 737l-285 -737h40l83 214h325l82 -214h41zM462 255h-292l146 378z" />
    <glyph glyph-name="B" unicode="B" horiz-adv-x="559" 
d="M523 207c0 51.333 -15 94.666 -45 129.999c-30.667 35.333 -71 58 -121 68c51.333 29.333 77 75.333 77 138c0 54.667 -17.333 97.334 -52 128.001c-32.667 28.667 -76.667 43 -132 43h-174v-714h223c62.667 -0 115.667 19.333 159 58c43.333 38 65 87.667 65 149z
M393 543c0 -38.667 -12.666 -70 -37.999 -94s-57.333 -36 -96 -36h-143v260h137c39.333 0 72.666 -12 99.999 -36c26.667 -22.667 40 -54 40 -94zM483.001 207c0 -49.333 -18 -89.333 -54 -120c-35.333 -30.667 -78.333 -46 -129 -46h-184v331h184
c51.333 0 94 -14.667 128 -44c36.667 -30.667 55 -71 55 -121z" />
    <glyph glyph-name="C" unicode="C" horiz-adv-x="702" 
d="M668 77l-0.00292969 47.002c-38.667 -28 -70.667 -48.333 -96 -61c-44 -21.333 -95.667 -32 -155 -32c-95.333 0 -173.666 30.667 -234.999 92c-60.667 60.667 -91 138.667 -91 234s30.667 173.666 92 234.999s139.333 92 234 92c55.333 0 108.333 -10.333 159 -31
c33.333 -14 64 -32.667 92 -56v51c-27.333 21.333 -55.666 37.666 -84.999 48.999c-49.333 18 -104.666 27 -165.999 27c-108 0 -196.333 -34.333 -265 -103c-68 -68 -102 -156 -102 -264s34.333 -196.333 103 -265c68 -68 156 -102 264 -102
c9.33301 0 18.333 0.166992 27 0.5s16.667 0.833008 24 1.5c64 6 114.667 22.667 152 50z" />
    <glyph glyph-name="D" unicode="D" horiz-adv-x="688" 
d="M633 358c0 98 -28.333 180.667 -85 248c-60 72 -138 108 -234 108h-238v-714h238c96.667 0 175 36 235 108c56 68 84 151.333 84 250zM592 358c0 -98 -29 -176.334 -87 -235.001c-54 -54.667 -117.667 -82 -191 -82h-198v633h198c84.667 0 153 -32 205 -96
c48.667 -59.333 73 -132.666 73 -219.999z" />
    <glyph glyph-name="E" unicode="E" horiz-adv-x="473" 
d="M414 0v41h-302v328h302v44h-302v260h302v41h-343v-714h343z" />
    <glyph glyph-name="F" unicode="F" horiz-adv-x="433" 
d="M386 372v41h-270v260h270v41h-310v-714h40v372h270z" />
    <glyph glyph-name="G" unicode="G" horiz-adv-x="822" 
d="M785 345l-280.999 0.000976562v-41h236c-6.66699 -64 -33.334 -121.333 -80.001 -172c-61.333 -67.333 -142.333 -101 -243 -101c-94 0 -172.333 30.667 -235 92c-61.333 61.333 -92 139.333 -92 234c0 94 31 172 93 234s140 93 234 93c115.333 0 205 -44 269 -132l33 25
c-73.333 98 -174 147 -302 147c-106.667 0 -194.667 -34.667 -264 -104c-68.667 -68.667 -103 -156.334 -103 -263.001c0 -108 34.333 -196.333 103 -265c68 -68 156 -102 264 -102c113.333 0 204.333 36.333 273 109c63.333 66.667 95 148.667 95 246z" />
    <glyph glyph-name="H" unicode="H" horiz-adv-x="615" 
d="M550 0v714h-41v-301h-393v301h-40v-714h40v372h393v-372h41z" />
    <glyph glyph-name="I" unicode="I" horiz-adv-x="192" 
d="M117 0v714h-40v-714h40z" />
    <glyph glyph-name="J" unicode="J" horiz-adv-x="315" 
d="M255 142l0.000976562 572h-41v-570c0 -74 -25 -111 -75 -111c-32.667 0 -57.334 15.333 -74.001 46l-35 -22c23.333 -43.333 60 -65 110 -65c76.667 0 115 50 115 150z" />
    <glyph glyph-name="K" unicode="K" horiz-adv-x="524" 
d="M514 0l-372 373l342 341h-58l-319 -317v317h-41v-714h41v339l6 6l344 -345h57z" />
    <glyph glyph-name="L" unicode="L" horiz-adv-x="356" 
d="M317 0v41h-201v673h-40v-714h241z" />
    <glyph glyph-name="M" unicode="M" horiz-adv-x="902" 
d="M881 0l-186 736l-243 -638l-243 637l-186 -735h41l153 601l235 -619l235 618l152 -600h42z" />
    <glyph glyph-name="N" unicode="N" horiz-adv-x="715" 
d="M651 -12v726h-41v-620l-533 625v-719h40v606z" />
    <glyph glyph-name="O" unicode="O" horiz-adv-x="822" 
d="M785 357c0 108 -34.334 196.333 -103.001 265c-69.333 68 -157.666 102 -264.999 102c-108 0 -196.333 -34.333 -265 -103c-68 -68 -102 -156 -102 -264s34.333 -196.333 103 -265c68 -68 156 -102 264 -102s196.333 34.333 265 103c68.667 68 103 156 103 264z
M743.999 357c0 -96.667 -30.334 -175.332 -91.001 -235.999c-61.333 -60 -140 -90 -236 -90c-95.333 0 -173.666 30.667 -234.999 92c-60.667 60.667 -91 138.667 -91 234s30.667 173.666 92 234.999s139.333 92 234 92c96 0 174.667 -30.667 236 -92
c60.667 -60.667 91 -139 91 -235z" />
    <glyph glyph-name="P" unicode="P" horiz-adv-x="490" 
d="M444 537c0 54 -18.667 97 -56 129s-83.333 48 -138 48h-174v-714h40v357h134c54.667 0 100.667 16.667 138 50c37.333 32 56 75.333 56 130zM403 537c0 -43.333 -14.667 -77.667 -44 -103c-29.333 -24 -66 -36 -110 -36h-133v275h133c44.667 0 80.667 -11.333 108 -34
c30.667 -24.667 46 -58.667 46 -102z" />
    <glyph glyph-name="Q" unicode="Q" horiz-adv-x="822" 
d="M793 357c0 108 -34.334 196.333 -103.001 265c-69.333 68 -157.666 102 -264.999 102c-108 0 -196.333 -34.333 -265 -103c-68 -68 -102 -156 -102 -264s34.333 -196.333 103 -265c68 -68 156 -102 264 -102s196.333 34.333 265 103c68.667 68 103 156 103 264z
M751.999 357c0 -96.667 -30.334 -175.332 -91.001 -235.999c-61.333 -60 -140 -90 -236 -90c-95.333 0 -173.666 30.667 -234.999 92c-60.667 60.667 -91 138.667 -91 234s30.667 173.666 92 234.999c60 61.333 138 92 234 92s174.667 -30.667 236 -92
c60.667 -60.667 91 -139 91 -235zM636.998 -95.998v41h-211v-41h211z" />
    <glyph glyph-name="R" unicode="R" horiz-adv-x="484" 
d="M468 0l-229.002 356.999c28.667 0 55 3.5 79 10.5s44.833 17.833 62.5 32.5s31.334 33.334 41.001 56.001s14.5 49.667 14.5 81c0 28.667 -5.16699 54 -15.5 76s-24.166 40.5 -41.499 55.5s-38 26.333 -62 34s-49.333 11.5 -76 11.5h-165v-714h40v357h77l227 -357h48z
M393.998 537.999c0 -45.333 -13.167 -80 -39.5 -104s-60.833 -36 -103.5 -36h-135v275h124c21.333 0 41.333 -2.83301 60 -8.5s35 -14 49 -25s25 -25 33 -42s12 -36.833 12 -59.5z" />
    <glyph glyph-name="S" unicode="S" horiz-adv-x="498" 
d="M458 185c0 56.667 -19.3311 103.999 -57.998 141.999c-14 14 -32.333 27.833 -55 41.5s-49.667 27.5 -81 41.5c-50 22.667 -83.333 40.667 -100 54c-29.333 25.333 -44 55 -44 89c0 38 14 68.667 42 92c26 22 58.667 33 98 33c37.333 0 67.666 -7.33301 90.999 -22
c18.667 -10.667 34.667 -27 48 -49l39 17c-34.667 62.667 -94 94 -178 94c-50.667 0 -93.334 -15.333 -128.001 -46c-35.333 -30 -53 -69.667 -53 -119s17.333 -89 52 -119c20.667 -18.667 59.334 -40.667 116.001 -66c30 -13.333 54.667 -25.333 74 -36
s33.666 -20.334 42.999 -29.001c35.333 -31.333 53 -70.666 53 -117.999c0 -50 -15 -88 -45 -114c-29.333 -25.333 -69.666 -38 -120.999 -38c-90 0 -146.667 42.667 -170 128l-41 -14c31.333 -103.333 101.666 -155 210.999 -155c35.333 0 66 4.66699 92 14
c76.667 28.667 115 88.334 115 179.001z" />
    <glyph glyph-name="T" unicode="T" horiz-adv-x="441" 
d="M402 673v41h-357v-41h158v-673h41v673h158z" />
    <glyph glyph-name="U" unicode="U" horiz-adv-x="555" 
d="M490 178l0.000976562 536.001h-41v-536c0 -44.667 -17 -80.334 -51 -107.001c-31.333 -24.667 -70 -37 -116 -37c-46.667 0 -85.334 12 -116.001 36c-33.333 26 -50 62 -50 108v536h-40v-536c0 -58 20.333 -104 61 -138c38.667 -31.333 87 -47 145 -47
c60 0 108.333 15.333 145 46c42 34.667 63 81 63 139z" />
    <glyph glyph-name="V" unicode="V" horiz-adv-x="526" 
d="M497 714h-43l-188 -590l-187 590h-42l229 -726z" />
    <glyph glyph-name="W" unicode="W" horiz-adv-x="876" 
d="M851 714h-42l-187 -584l-180 597l-181 -597l-187 584h-40l229 -724l179 599l178 -599z" />
    <glyph glyph-name="X" unicode="X" horiz-adv-x="530" 
d="M504 0l-210 366l198 348h-47l-177 -309l-176 309h-47l198 -345l-210 -369h46l188 331l190 -331h47z" />
    <glyph glyph-name="Y" unicode="Y" horiz-adv-x="511" 
d="M481 714h-47l-178 -309l-176 309h-47l203 -357v-357h41v357z" />
    <glyph glyph-name="Z" unicode="Z" horiz-adv-x="554" 
d="M522 714h-459v-42h385l-409 -672h481v41h-408z" />
    <glyph glyph-name="bracketleft" unicode="[" horiz-adv-x="214" 
d="M170 -46v34h-70v732h67v35h-108v-801h111z" />
    <glyph glyph-name="backslash" unicode="\" horiz-adv-x="281" 
d="M267 0l-204 714h-40l205 -714h39z" />
    <glyph glyph-name="bracketright" unicode="]" horiz-adv-x="214" 
d="M172 -46v801h-108v-35h68v-732h-71v-34h111z" />
    <glyph glyph-name="asciicircum" unicode="^" horiz-adv-x="352" 
d="M316 377l-121 281h-33l-121 -281h26l112 206l110 -206h27z" />
    <glyph glyph-name="underscore" unicode="_" horiz-adv-x="357" 
d="M368 -212v36h-368v-36h368z" />
    <glyph glyph-name="grave" unicode="`" horiz-adv-x="332" 
d="M247 492l-134 134l-22 -24l131 -133z" />
    <glyph glyph-name="a" unicode="a" horiz-adv-x="510" 
d="M454 0v413h-41v-72c-44 52 -99 78 -165 78c-60 0 -110.667 -20.667 -152 -62c-40.667 -40.667 -61 -91 -61 -151s20.667 -110.667 62 -152c40.667 -40.667 91 -61 151 -61c66.667 0 121.667 26 165 78v-71h41zM421 206c0 -48 -17 -89 -51 -123
c-33.333 -33.333 -74 -50 -122 -50c-47.333 0 -88 17 -122 51s-51 74.667 -51 122c0 48 17 89 51 123c33.333 33.333 74 50 122 50c47.333 0 88 -17 122 -51s51 -74.667 51 -122z" />
    <glyph glyph-name="b" unicode="b" horiz-adv-x="517" 
d="M478 206c0 60 -20.668 110.667 -62.001 152c-40.667 40.667 -91 61 -151 61c-69.333 0 -125.666 -27.667 -168.999 -83v404h-41v-740h41v76c44 -55.333 100.333 -83 169 -83c60 0 110.667 20.667 152 62c40.667 40.667 61 91 61 151zM437.999 206c0 -48 -17 -89 -51 -123
c-33.333 -33.333 -74 -50 -122 -50c-47.333 0 -88 17 -122 51s-51 74.667 -51 122c0 48 17 89 51 123c33.333 33.333 74 50 122 50c47.333 0 88 -17 122 -51s51 -74.667 51 -122z" />
    <glyph glyph-name="c" unicode="c" horiz-adv-x="438" 
d="M387 29l0.000976562 50.999c-36 -32 -78 -48 -126 -48c-50.667 0 -92.334 16.333 -125.001 49s-49 74.334 -49 125.001c0 51.333 16.333 93.333 49 126c32 32 73.667 48 125 48c22.667 0 46.667 -4.33301 72 -13l28 -15l26 -17v49c-31.333 24 -73.333 36 -126 36
c-61.333 0 -112.333 -20.333 -153 -61s-61 -91.667 -61 -153s20.333 -112.333 61 -153s91.667 -61 153 -61c46.667 0 88.667 12.333 126 37z" />
    <glyph glyph-name="d" unicode="d" horiz-adv-x="521" 
d="M465 0v740h-41v-402c-46 54 -102 81 -168 81c-60 0 -110.667 -20.667 -152 -62c-40.667 -40.667 -61 -91 -61 -151s20.667 -110.667 62 -152c40.667 -40.667 91 -61 151 -61c68 0 124 27 168 81v-74h41zM429 206c0 -48 -17 -89 -51 -123
c-33.333 -33.333 -74 -50 -122 -50c-47.333 0 -88 17 -122 51s-51 74.667 -51 122c0 48 17 89 51 123c33.333 33.333 74 50 122 50c47.333 0 88 -17 122 -51s51 -74.667 51 -122z" />
    <glyph glyph-name="e" unicode="e" horiz-adv-x="490" 
d="M461 215c0 60.667 -20.332 110.001 -60.999 148.001c-40 38 -90.667 57 -152 57c-62 0 -113.333 -20.333 -154 -61c-40 -40 -60 -91 -60 -153c0 -61.333 20.333 -112.333 61 -153c40 -40.667 91 -61 153 -61c26 0 49.333 3.33301 70 10c54 17.333 94 50.666 120 99.999
l-37 17c-22.667 -36.667 -48.334 -61 -77.001 -73c-22.667 -9.33301 -48 -14 -76 -14c-54.667 0 -97.667 16.667 -129 50c-30 32.667 -45 77 -45 133h387zM415.001 254.001h-335.001c26.667 84 82.667 126 168 126c40.667 0 76.667 -11.333 108 -34
c32.667 -23.333 52.334 -54 59.001 -92z" />
    <glyph glyph-name="f" unicode="f" horiz-adv-x="271" 
d="M250 693v41c-10 4.66699 -19 7 -27 7c-4 1.33301 -13.333 2 -28 2c-64 0 -96 -31.667 -96 -95v-235h-56v-41h56v-372h41v372h98v41h-98v223c0 44 18.667 66 56 66l27 -3z" />
    <glyph glyph-name="g" unicode="g" horiz-adv-x="510" 
d="M454 9v404h-41v-72c-44 52 -99 78 -165 78c-60 0 -110.667 -20.667 -152 -62c-40.667 -40.667 -61 -91 -61 -151s20.667 -110.667 62 -152c40.667 -40.667 91 -61 151 -61c66.667 0 121.667 26 165 78v-61c0 -51.333 -14.333 -91.333 -43 -120
c-28 -28.667 -67.667 -43 -119 -43c-38 0 -70.667 6.33301 -98 19c-34.667 16 -55.667 40.333 -63 73h-41c22 -88.667 89.333 -133 202 -133c60.667 0 109.667 18.667 147 56s56 86.333 56 147zM421 206c0 -48 -17 -89 -51 -123c-33.333 -33.333 -74 -50 -122 -50
c-47.333 0 -88 17 -122 51s-51 74.667 -51 122c0 48 17 89 51 123c33.333 33.333 74 50 122 50c47.333 0 88 -17 122 -51s51 -74.667 51 -122z" />
    <glyph glyph-name="h" unicode="h" horiz-adv-x="456" 
d="M401 -1v253c0 111.333 -54.333 167 -163 167c-57.333 0 -98.333 -20.333 -123 -61v382h-41v-740h41v269c0 33.333 12.333 60 37 80c24 20 52.667 30 86 30c81.333 0 122 -43.667 122 -131v-249h41z" />
    <glyph glyph-name="i" unicode="i" horiz-adv-x="184" 
d="M127 520c-5.33301 22 -16.333 33 -33 33c-22 -4 -33 -15 -33 -33c0.666992 -10 4 -18 10 -24c8 -6 15.667 -9 23 -9c22 0 33 11 33 33zM114 0v413h-41v-413h41z" />
    <glyph glyph-name="j" unicode="j" horiz-adv-x="185" 
d="M127 520c-5.33301 22 -16.333 33 -33 33c-22 -4 -33 -15 -33 -33c0.666992 -10 4 -18 10 -24c8 -6 15.667 -9 23 -9c22 0 33 11 33 33zM115 -180v593h-41v-593h41z" />
    <glyph glyph-name="k" unicode="k" horiz-adv-x="417" 
d="M401 0l-243 243l187 186h-58l-179 -178v489h-41v-740h41v192l23 23l216 -215h54z" />
    <glyph glyph-name="l" unicode="l" horiz-adv-x="192" 
d="M117 0v740h-40v-740h40z" />
    <glyph glyph-name="m" unicode="m" horiz-adv-x="643" 
d="M577 0l-0.00195312 284.999c0 42 -12.667 75 -38 99c-25.333 23.333 -58.666 35 -99.999 35c-54 0 -93 -21.667 -117 -65c-25.333 43.333 -64.666 65 -117.999 65c-44.667 0 -77 -15.667 -97 -47v41h-41v-413h41v285c0 28.667 9.33301 51.334 28 68.001
c18.667 17.333 41.667 26 69 26c26.667 0 49.667 -9 69 -27c18.667 -16.667 28 -39 28 -67v-285h41v285c0 62.667 32.333 94 97 94c31.333 0 55.333 -9.33301 72 -28s25 -40.667 25 -66v-285h41z" />
    <glyph glyph-name="n" unicode="n" horiz-adv-x="451" 
d="M385 0v251c0 52.667 -13.667 93.667 -41 123s-66.666 44 -117.999 44c-60.667 0 -100.334 -18.333 -119.001 -55v50h-41v-413h41v251c0 39.333 10.333 70.333 31 93c20 22.667 49.333 34 88 34c78.667 0 118 -43.667 118 -131v-247h41z" />
    <glyph glyph-name="o" unicode="o" horiz-adv-x="498" 
d="M461 206c0 60 -20.668 110.666 -62.001 151.999s-91.666 62 -150.999 62c-60 0 -110.333 -21 -151 -63c-41.333 -41.333 -62 -91.666 -62 -150.999c0 -60 20.667 -110.667 62 -152c40.667 -40.667 91 -61 151 -61s110.667 20.667 152 62c40.667 40.667 61 91 61 151z
M420.999 205.999c0 -48 -17 -89.001 -51 -123.001c-33.333 -33.333 -74 -50 -122 -50c-47.333 0 -88 17 -122 51s-51 74.667 -51 122c0 46.667 17.333 87.334 52 122.001c34 34.667 74.333 52 121 52c48.667 0 89.667 -17 123 -51c33.333 -33.333 50 -74.333 50 -123z" />
    <glyph glyph-name="p" unicode="p" horiz-adv-x="513" 
d="M488 206c0 60 -20.667 110.667 -62 152c-40.667 40.667 -91 61 -151 61c-70.667 0 -127.334 -28 -170.001 -84v78h-41v-607h41v271c44.667 -56 101.334 -84 170.001 -84c60 0 110.667 20.667 152 62c40.667 40.667 61 91 61 151zM448 206c0 -48 -17 -89 -51 -123
c-33.333 -33.333 -74 -50 -122 -50c-47.333 0 -88 17 -122 51s-51 74.667 -51 122c0 48 17 89 51 123c33.333 33.333 74 50 122 50c47.333 0 88 -17 122 -51s51 -74.667 51 -122z" />
    <glyph glyph-name="q" unicode="q" horiz-adv-x="502" 
d="M452 -194v607h-41v-75c-45.333 54 -101.333 81 -168 81c-60 0 -110.667 -20.667 -152 -62c-40.667 -40.667 -61 -91 -61 -151s20.667 -110.667 62 -152c40.667 -40.667 91 -61 151 -61c68 0 124 27 168 81v-268h41zM416 206c0 -48 -17 -89 -51 -123
c-33.333 -33.333 -74 -50 -122 -50c-47.333 0 -88 17 -122 51s-51 74.667 -51 122c0 48 17 89 51 123c33.333 33.333 74 50 122 50c47.333 0 88 -17 122 -51s51 -74.667 51 -122z" />
    <glyph glyph-name="r" unicode="r" horiz-adv-x="310" 
d="M283 386c-16.667 12 -31.666 20.332 -44.999 24.999s-30.333 7 -51 7c-16.667 0 -32 -6.33301 -46 -19s-25.333 -26.667 -34 -42v56h-41v-413h41v272c0 10.667 2.16699 22.334 6.5 35.001s10.166 24.167 17.499 34.5s16 19 26 26s20.667 10.5 32 10.5
c13.333 0 26 -2.33301 38 -7s23.333 -11 34 -19z" />
    <glyph glyph-name="s" unicode="s" horiz-adv-x="331" 
d="M308 113c0 37.333 -14.3311 66.999 -42.998 88.999c-7.33301 5.33301 -18.333 11.5 -33 18.5s-33.334 14.5 -56.001 22.5c-26 8.66699 -45 17.667 -57 27c-14.667 12 -22 27.333 -22 46c0 42 24 63 72 63c35.333 0 64.333 -11.333 87 -34l30 26c-32 32 -71 48 -117 48
c-33.333 0 -60.333 -10.333 -81 -31c-21.333 -20 -32 -44 -32 -72c0 -32.667 10.667 -57.667 32 -75c14.667 -12 38.667 -24 72 -36c18 -6.66699 33.167 -12.5 45.5 -17.5s21.833 -9.5 28.5 -13.5c22 -17.333 33 -37.666 33 -60.999c0 -53.333 -31.333 -80 -94 -80
c-28.667 0 -51.334 6.33301 -68.001 19c-16 11.333 -29.667 27.333 -41 48l-35 -21c32 -58 80 -87 144 -87c37.333 0 69.333 11.333 96 34c26 22 39 51 39 87z" />
    <glyph glyph-name="t" unicode="t" horiz-adv-x="250" 
d="M224 372v41h-96v181h-41v-181h-56v-41h56v-372h41v372h96z" />
    <glyph glyph-name="u" unicode="u" horiz-adv-x="429" 
d="M369 155v258h-40v-258c0 -82 -38.333 -123 -115 -123c-39.333 0 -68 10.667 -86 32c-17.333 21.333 -26 51.666 -26 90.999v258h-41v-258c0 -51.333 13.333 -91.333 40 -120s64.334 -43 113.001 -43c49.333 0 87.666 14.667 114.999 44
c26.667 28.667 40 68.334 40 119.001z" />
    <glyph glyph-name="v" unicode="v" horiz-adv-x="435" 
d="M418 413h-46l-151 -329l-150 329h-44l195 -431z" />
    <glyph glyph-name="w" unicode="w" horiz-adv-x="684" 
d="M661 413h-46l-138 -319l-132 332l-133 -333l-139 320h-44l185 -431l131 330l129 -330z" />
    <glyph glyph-name="x" unicode="x" horiz-adv-x="361" 
d="M347 0l-140 209l137 204h-48l-114 -171l-115 171h-48l138 -205l-141 -208h49l117 173l117 -173h48z" />
    <glyph glyph-name="y" unicode="y" horiz-adv-x="445" 
d="M423 413h-45l-152 -326l-154 326h-44l174 -375l-107 -232h46z" />
    <glyph glyph-name="z" unicode="z" horiz-adv-x="457" 
d="M424 413h-361v-39h278l-295 -374h373v41h-288z" />
    <glyph glyph-name="braceleft" unicode="{" horiz-adv-x="193" 
d="M178 -51v36.999c-33.333 0 -56.333 5.33301 -69 16c-12.667 10 -19 31.333 -19 64v199c0 15.333 -4.33301 31.333 -13 48c-8 17.333 -17.333 31.333 -28 42c27.333 23.333 41 53.333 41 90v183c0 30.667 6.66699 52.667 20 66c12.667 12.667 35 19 67 19v37
c-45.333 0 -77.333 -9.33301 -96 -28c-18.667 -18 -28 -49.333 -28 -94v-183c0 -36 -15 -66 -45 -90c15.333 -15.333 25.333 -27.666 30 -36.999c10 -19.333 15 -37 15 -53v-201c0 -44.667 9.66699 -75 29 -91c18.667 -16 50.667 -24 96 -24z" />
    <glyph glyph-name="bar" unicode="|" horiz-adv-x="133" 
d="M89 -46v801h-35v-801h35z" />
    <glyph glyph-name="braceright" unicode="}" horiz-adv-x="193" 
d="M185 355c-15.333 15.333 -25.332 27.002 -29.999 35.002c-10 18 -15 36.333 -15 55v183c0 42.667 -9.66699 73.667 -29 93s-51 29 -95 29v-37c32 0 54.333 -6.33301 67 -19c13.333 -13.333 20 -35.333 20 -66v-183c0 -20 3.66699 -37.333 11 -52
s17.333 -27.334 30 -38.001c-27.333 -29.333 -41 -59.333 -41 -90v-199c0 -32.667 -6.33301 -54.334 -19 -65.001c-13.333 -10 -36.333 -15 -69 -15v-37c45.333 0 77.666 8 96.999 24c18.667 16 28 46.333 28 91v201c0 17.333 5.33301 35.333 16 54
c8 14.667 17.667 26.667 29 36z" />
    <glyph glyph-name="asciitilde" unicode="~" horiz-adv-x="429" 
d="M402 359l-32.001 27c-23.333 -24 -49 -36 -77 -36l-18 2l-17 5l-34 16l-40 18c-12 4 -24.333 6 -37 6c-44 0 -83 -17 -117 -51l28 -29l19 17l17 11c16.667 8 34.334 12 53.001 12c14 0 28 -3.66699 42 -11l25 -13l41 -19c8 -3.33301 21.333 -5 40 -5
c40 0 75.667 16.667 107 50z" />
    <glyph glyph-name="exclamdown" unicode="&#xa1;" horiz-adv-x="204" 
d="M139 608c-2 11.333 -5.66797 19.667 -11.001 25c-7.33301 7.33301 -15.666 11 -24.999 11c-24 -4 -36 -16 -36 -36c0 -24 12 -36 36 -36c24 4 36 16 36 36zM123.999 -73.999v566h-40v-566h40z" />
    <glyph glyph-name="cent" unicode="&#xa2;" horiz-adv-x="423" 
d="M371 469v49c-14.667 13.333 -32 23 -52 29c-18 7.33301 -38 11 -60 11v49h-42v-50c-54.667 -6.66699 -98.334 -29 -131.001 -67c-32 -37.333 -48 -83.666 -48 -138.999c0 -50.667 15 -94.334 45 -131.001c36.667 -46 81.334 -69 134.001 -69v-59h42v58l32 3l30 7
c20 8 36 16 48 24v46c-39.333 -27.333 -76 -41 -110 -41v326c18 0 38 -4.66699 60 -14l26 -15zM217 190c-41.333 6.66699 -74.333 24.666 -99 53.999c-24 28.667 -36 64.334 -36 107.001c0 42 12.333 78.333 37 109c25.333 30 58 48 98 54v-324z" />
    <glyph glyph-name="sterling" unicode="&#xa3;" horiz-adv-x="474" 
d="M448 50l-26.999 26c-28 -28 -57.667 -42 -89 -42c-14 0 -27 2 -39 6l-38 17c-9.33301 6 -21.333 12 -36 18l-17 7l-15 1c20.667 20.667 38 45 52 73c13.333 28.667 20 58 20 88h112v43h-114c-6.66699 24.667 -18 49 -34 73l-52 78c-26 38.667 -41.667 70.667 -47 96
l-3 32c0 75.333 43.667 113 131 113c38 0 68 -7.66699 90 -23c27.333 -18 41 -44.667 41 -80h40c0 47.333 -17 83.666 -51 108.999c-30.667 22.667 -70.667 34 -120 34c-50 0 -91.333 -12.667 -124 -38c-34 -27.333 -51 -65.666 -51 -114.999c0 -23.333 5.66699 -49 17 -77
l40 -71l37 -51c24.667 -33.333 39 -60 43 -80h-104v-43h107c0 -54 -27.333 -108.333 -82 -163c-16 0 -33.667 -5.66699 -53 -17c-18.667 -10.667 -33 -23 -43 -37l26 -28c16.667 16 30.334 26.333 41.001 31c20.667 8.66699 39.667 12.667 57 12l23 -2l23 -6
c8.66699 -2 18 -6 28 -12c31.333 -18.667 63 -28 95 -28c25.333 0 48.666 6 69.999 18c9.33301 6.66699 17.666 13 24.999 19s14.333 12.333 21 19z" />
    <glyph glyph-name="yen" unicode="&#xa5;" horiz-adv-x="514" 
d="M481 714h-47l-178 -310l-176 310h-47l200 -352h-98v-41h101v-45h-101v-41h101v-235h41v235h102v41h-102v45h102v41h-99z" />
    <glyph glyph-name="brokenbar" unicode="&#xa6;" horiz-adv-x="133" 
d="M89 436v319h-35v-319h35zM89 0v327h-35v-327h35z" />
    <glyph glyph-name="section" unicode="&#xa7;" horiz-adv-x="380" 
d="M346 348c0 90 -51.333 143.333 -154 160c-61.333 10 -92 42.333 -92 97c0 24 8.33301 44.333 25 61c16.667 16 37 24 61 24c41.333 0 74 -22 98 -66l30 20c-28 56 -70.667 84 -128 84c-36 0 -66.667 -11.667 -92 -35c-24 -23.333 -36 -53.333 -36 -90
c0 -49.333 23.667 -87.666 71 -114.999c-28.667 -15.333 -48.667 -30 -60 -44c-21.333 -25.333 -32 -58.333 -32 -99c0 -38.667 13.667 -72.334 41 -101.001c26.667 -27.333 59.667 -43.666 99 -48.999c70.667 -8.66699 106 -47 106 -115c0 -28 -9.33301 -50 -28 -66
c-18 -16 -41 -24 -69 -24c-29.333 0 -51.333 7.33301 -66 22c-15.333 15.333 -27.333 33.666 -36 54.999l-37 -17c12 -31.333 29.667 -55.666 53 -72.999s52 -26 86 -26c40.667 0 74.667 11.667 102 35c26.667 22.667 40 54 40 94c0 61.333 -22.667 104.666 -68 129.999
c57.333 33.333 86 79.333 86 138zM301 345c0 -31.333 -10.333 -55.999 -31 -73.999c-20.667 -17.333 -46.667 -26 -78 -26c-30 0 -55.667 9.66699 -77 29s-32 44.666 -32 75.999c0 30.667 9.33301 55.667 28 75c18.667 20 43 30 73 30c78 0 117 -36.667 117 -110z" />
    <glyph glyph-name="dieresis" unicode="&#xa8;" horiz-adv-x="429" 
d="M321 520c-5.33301 22 -16.333 33 -33 33c-22 -4 -33 -15 -33 -33c0.666992 -10 4 -18 10 -24c8 -6 15.667 -9 23 -9c22 0 33 11 33 33zM184 520c-5.33301 22 -16.333 33 -33 33c-22 -4 -33 -15 -33 -33c0.666992 -10 4 -18 10 -24c8 -6 15.667 -9 23 -9c22 0 33 11 33 33
z" />
    <glyph glyph-name="copyright" unicode="&#xa9;" horiz-adv-x="588" 
d="M560 389c0 73.333 -25.667 135.666 -77 186.999c-52 50.667 -114 76 -186 76c-73.333 0 -135.666 -25.667 -186.999 -77c-50.667 -50.667 -76 -112.667 -76 -186s25.667 -135.666 77 -186.999c50.667 -50.667 112.667 -76 186 -76s135.666 25.667 186.999 77
c50.667 52 76 114 76 186zM541 390c0 -68 -23.667 -125.667 -71 -173c-46.667 -46.667 -104 -70 -172 -70s-125.667 23.667 -173 71c-46.667 46.667 -70 104 -70 172s23.667 125.667 71 173c46.667 46.667 104 70 172 70s125.667 -23.667 173 -71
c46.667 -46.667 70 -104 70 -172zM392 308l-0.00195312 23.999c-23.333 -26 -55 -39 -95 -39c-36 0 -63.333 10 -82 30c-18.667 19.333 -28 43 -28 71c0 30.667 10.667 55 32 73c20.667 18 46.667 27 78 27l29 -3c8.66699 -0.666992 18 -3.66699 28 -9l20 -10l18 -12v24
l-20 12l-17 8c-13.333 6.66699 -32.666 10 -57.999 10c-37.333 0 -68.333 -11 -93 -33c-24.667 -20.667 -37 -49.667 -37 -87c0 -35.333 12.667 -64.666 38 -87.999c24.667 -22 55.334 -33 92.001 -33c40 0 71.667 11.667 95 35z" />
    <glyph glyph-name="ordfeminine" unicode="&#xaa;" horiz-adv-x="373" 
d="M309 424v247.999h-25v-43c-25.333 31.333 -58.333 47 -99 47c-36 0 -66.333 -12.333 -91 -37c-24 -25.333 -36 -55.666 -36 -90.999c0 -36 12.333 -66.333 37 -91c24 -24.667 54 -37 90 -37c42 0 75 15.667 99 47v-43h25zM334 335.999v29h-284v-29h284zM289 547.999
c0 -28 -10.333 -52.333 -31 -73s-45 -31 -73 -31s-52.333 10.333 -73 31c-20 20.667 -30 45 -30 73s10.333 52.333 31 73c20 20.667 44 31 72 31s52.333 -10.333 73 -31s31 -45 31 -73z" />
    <glyph glyph-name="guillemotleft" unicode="&#xab;" horiz-adv-x="439" 
d="M392 423l-21 21l-188 -189l184 -185l21 21l-165 164zM247 423l-20 21l-189 -189l184 -185l21 21l-164 164z" />
    <glyph glyph-name="logicalnot" unicode="&#xac;" 
d="M205 419v322h-60l-12 -19h54v-303h18zM318 354v26h-254v-26h254zM288 82c0 41.333 -20.668 69.665 -62.001 84.998c14.667 2.66699 27 12.334 37 29.001c8.66699 13.333 13 28.333 13 45c0 24 -7.66699 43.667 -23 59s-35 23 -59 23c-24.667 0 -44.667 -7.66699 -60 -23
s-23 -35 -23 -59c0 -15.333 4.66699 -30.666 14 -45.999c8.66699 -14 20.334 -23.333 35.001 -28c-40 -15.333 -60 -43.666 -60 -84.999c0 -26.667 8.33301 -48.334 25 -65.001c17.333 -17.333 40.333 -26 69 -26c28 0 50.667 8.33301 68 25c17.333 17.333 26 39.333 26 66z
M257.999 240.999c0 -18 -6.33301 -33.333 -19 -46c-12 -12 -27 -18 -45 -18s-33.333 6.33301 -46 19c-12.667 12 -19 27 -19 45s6.33301 33.333 19 46c12.667 12 28 18 46 18s33.333 -6.33301 46 -19c12 -12 18 -27 18 -45zM269.999 81.999
c0 -20.667 -7.33398 -37.999 -22.001 -51.999c-15.333 -14 -33.333 -21 -54 -21c-21.333 0 -39.333 7 -54 21c-14.667 12.667 -22 30 -22 52c0 20 7.66699 37.667 23 53c14.667 14.667 32.334 22 53.001 22c21.333 0 39.333 -7.33301 54 -22s22 -32.334 22 -53.001z" />
    <glyph glyph-name="registered" unicode="&#xae;" horiz-adv-x="399" 
d="M357 539c0 44 -15.333 81.333 -46 112s-68 46 -112 46s-81.333 -15.333 -112 -46s-46 -68 -46 -112s15.333 -81.333 46 -112s68 -46 112 -46s81.333 15.333 112 46s46 68 46 112zM342 539c0 -38 -14.333 -71.333 -43 -100s-62 -43 -100 -43s-71.333 14.333 -100 43
s-43 62 -43 100s14.333 71.333 43 100s62 43 100 43s71.333 -14.333 100 -43s43 -62 43 -100zM265 452l-59 84h8c34 0 51 16.333 51 49c0 14.667 -5 26.667 -15 36c-8.66699 8.66699 -20.667 13 -36 13h-70v-182h14v84h31l58 -84h18zM251 585c0 -23.333 -12 -35 -36 -35h-57
v70h57c24 0 36 -11.667 36 -35z" />
    <glyph glyph-name="macron" unicode="&#xaf;" horiz-adv-x="393" 
d="M342 474v36h-285v-36h285z" />
    <glyph glyph-name="degree" unicode="&#xb0;" horiz-adv-x="212" 
d="M189 615c0 22 -8.33301 41.333 -25 58s-36 25 -58 25s-41.333 -8.33301 -58 -25s-25 -36 -25 -58s8.33301 -41.333 25 -58s36 -25 58 -25s41.333 8.33301 58 25s25 36 25 58zM168 616c0 -16 -6.33301 -30.333 -19 -43s-27 -19 -43 -19s-30.333 6.33301 -43 19
s-19 27 -19 43s6.33301 30.333 19 43s27 19 43 19s30.333 -6.33301 43 -19s19 -27 19 -43z" />
    <glyph glyph-name="plusminus" unicode="&#xb1;" horiz-adv-x="388" 
d="M317 323v41h-102v102h-46v-102h-102v-41h102v-102h46v102h102zM324 142v41h-257v-41h257z" />
    <glyph glyph-name="twosuperior" unicode="&#xb2;" 
d="M297 656c0 25.333 -9.33105 46 -27.998 62c-19.333 16 -41.333 24 -66 24c-22.667 0 -43.334 -7.33301 -62.001 -22c-18 -13.333 -28.667 -31.333 -32 -54h20c12.667 38.667 37.334 58 74.001 58c19.333 0 36.666 -6.66699 51.999 -20s23 -29.333 23 -48
c0 -18 -6.33301 -36.667 -19 -56l-157 -182h194v18h-154l93 105c23.333 26.667 37.666 44 42.999 52c12.667 21.333 19 42.333 19 63z" />
    <glyph glyph-name="threesuperior" unicode="&#xb3;" 
d="M291 507c0 45.333 -21 73.999 -63 85.999c40 10.667 60 35.334 60 74.001c0 25.333 -8.33301 45.333 -25 60s-37 22 -61 22c-23.333 0 -43 -7 -59 -21c-16 -12.667 -25 -31 -27 -55h21c6 38 27.667 57 65 57c18.667 0 34 -6 46 -18c12 -11.333 18 -26.333 18 -45l-4 -25
l-12 -19c-11.333 -11.333 -26.666 -17 -45.999 -17h-19v-26h19l21 -4c6 -2 12.667 -6 20 -12c17.333 -13.333 26 -32.333 26 -57c0 -20 -7 -37 -21 -51c-14.667 -13.333 -31.667 -20 -51 -20c-16.667 0 -31.334 5.66699 -44.001 17c-12 11.333 -20 23 -24 35h-20
c12.667 -46.667 42 -70 88 -70c27.333 0 49.333 8.33301 66 25c17.333 16 26 37.333 26 64z" />
    <glyph glyph-name="acute" unicode="&#xb4;" horiz-adv-x="408" 
d="M313 602l-24 24l-133 -133l24 -24z" />
    <glyph glyph-name="mu" unicode="&#xb5;" horiz-adv-x="785" 
d="M494 530c0 56.667 -20.332 102.332 -60.999 136.999c-40.667 35.333 -89.334 53 -146.001 53c-66 0 -119 -22 -159 -66c-30 -34 -47.333 -68.333 -52 -103h45c7.33301 30.667 20.333 56.334 39 77.001c30.667 34.667 73 52 127 52c44 0 82.667 -14.333 116 -43
c33.333 -29.333 50 -65 50 -107c0 -43.333 -14 -85 -42 -125l-350 -405h432v41h-342l205 232l46 53.5l27 32.5c43.333 56 65 113 65 171zM339.001 444.998c0 22 -8.33301 41.333 -25 58s-36 25 -58 25s-41.333 -8.33301 -58 -25s-25 -36 -25 -58s8.33301 -41.333 25 -58
s36 -25 58 -25s41.333 8.33301 58 25s25 36 25 58zM318.001 445.998c0 -16 -6.33301 -30.333 -19 -43s-27 -19 -43 -19s-30.333 6.33301 -43 19s-19 27 -19 43s6.33301 30.333 19 43s27 19 43 19s30.333 -6.33301 43 -19s19 -27 19 -43zM699.001 444.998
c0 22 -8.33301 41.333 -25 58s-36 25 -58 25s-41.333 -8.33301 -58 -25s-25 -36 -25 -58s8.33301 -41.333 25 -58s36 -25 58 -25s41.333 8.33301 58 25s25 36 25 58zM678.001 445.998c0 -16 -6.33301 -30.333 -19 -43s-27 -19 -43 -19s-30.333 6.33301 -43 19s-19 27 -19 43
s6.33301 30.333 19 43s27 19 43 19s30.333 -6.33301 43 -19s19 -27 19 -43zM244.001 428.998c0 -6 2.16699 -11.167 6.5 -15.5s9.5 -6.5 15.5 -6.5s11.167 2.16699 15.5 6.5s6.5 9.5 6.5 15.5s-2.16699 11.167 -6.5 15.5s-9.5 6.5 -15.5 6.5s-11.167 -2.16699 -15.5 -6.5
s-6.5 -9.5 -6.5 -15.5zM605.001 425.998c0 -6 2.16699 -11.167 6.5 -15.5s9.5 -6.5 15.5 -6.5s11.167 2.16699 15.5 6.5s6.5 9.5 6.5 15.5s-2.16699 11.167 -6.5 15.5s-9.5 6.5 -15.5 6.5s-11.167 -2.16699 -15.5 -6.5s-6.5 -9.5 -6.5 -15.5zM586.001 -129.002l-18 22
c-24.667 -24.667 -53 -37 -85 -37c-34.667 0 -65 13 -91 39l-21 -24c27.333 -29.333 63.333 -44 108 -44c46 0 81.667 14.667 107 44z" />
    <glyph glyph-name="paragraph" unicode="&#xb6;" horiz-adv-x="505" 
d="M446 -61v775h-41v-775h41zM351 -61v775h-108c-55.333 0 -101 -16 -137 -48c-38 -34 -57 -77.667 -57 -131c0 -54.667 18.333 -98 55 -130s83 -48 139 -48h67v-418h41z" />
    <glyph glyph-name="periodcentered" unicode="&#xb7;" horiz-adv-x="276" 
d="M135 324c-5.33301 22 -16.333 33 -33 33c-22 -4 -33 -15 -33 -33c0.666992 -10 4 -18 10 -24c8 -6 15.667 -9 23 -9c22 0 33 11 33 33z" />
    <glyph glyph-name="periodcentered" unicode="&#x2219;" horiz-adv-x="276" 
d="M135 324c-5.33301 22 -16.333 33 -33 33c-22 -4 -33 -15 -33 -33c0.666992 -10 4 -18 10 -24c8 -6 15.667 -9 23 -9c22 0 33 11 33 33z" />
    <glyph glyph-name="cedilla" unicode="&#xb8;" horiz-adv-x="260" 
d="M195 -94c0 27.333 -12.666 44.999 -37.999 52.999l14 41h-45l-16 -49c24 -9.33301 36 -21 36 -35c0 -16 -9.33301 -24 -28 -24l-24 7c-4.66699 2.66699 -8.83398 5.16699 -12.501 7.5s-6.83398 4.83301 -9.50098 7.5v-40c18.667 -16.667 40.334 -25 65.001 -25
c17.333 0 31.333 5.33301 42 16s16 24.334 16 41.001z" />
    <glyph glyph-name="onesuperior" unicode="&#xb9;" 
d="M219 419v322h-60l-12 -19h54v-303h18z" />
    <glyph glyph-name="ordmasculine" unicode="&#xba;" horiz-adv-x="373" 
d="M315 552c0 36 -12.333 66.333 -37 91s-55 37 -91 37s-66.333 -12.333 -91 -37s-37 -55 -37 -91s12.333 -66.333 37 -91s55 -37 91 -37s66.333 12.333 91 37s37 55 37 91zM328 336v29h-282v-29h282zM291 552c0 -28 -10.333 -52.333 -31 -73s-45 -31 -73 -31
s-52.333 10.333 -73 31s-31 45 -31 73s10.333 52.333 31 73s45 31 73 31s52.333 -10.333 73 -31s31 -45 31 -73z" />
    <glyph glyph-name="guillemotright" unicode="&#xbb;" horiz-adv-x="439" 
d="M413 255l-189 189l-20 -21l168 -168l-164 -164l21 -21zM263 255l-189 189l-20 -21l168 -168l-164 -164l21 -21z" />
    <glyph glyph-name="onequarter" unicode="&#xbc;" 
d="M219 419v322h-60l-12 -19h54v-303h18zM333 354v26h-254v-26h254zM288 60v18h-28v247l-184 -265h165v-61h19v61h28zM241 78h-132l132 187v-187z" />
    <glyph glyph-name="onehalf" unicode="&#xbd;" 
d="M225 419v322h-60l-12 -19h54v-303h18zM335 354v26h-254v-26h254zM301 238c0 25.333 -9.33105 46 -27.998 62c-19.333 16 -41.333 24 -66 24c-22.667 0 -43.334 -7.33301 -62.001 -22c-18 -13.333 -28.667 -31.333 -32 -54h20c12.667 38.667 37.334 58 74.001 58
c19.333 0 36.666 -6.66699 51.999 -20s23 -29.333 23 -48c0 -18 -6.33301 -36.667 -19 -56l-157 -182h194v18h-154l93 105c23.333 26.667 37.666 44 42.999 52c12.667 21.333 19 42.333 19 63z" />
    <glyph glyph-name="threequarters" unicode="&#xbe;" 
d="M291 507c0 45.333 -21 73.999 -63 85.999c40 10.667 60 35.334 60 74.001c0 25.333 -8.33301 45.333 -25 60s-37 22 -61 22c-23.333 0 -43 -7 -59 -21c-16 -12.667 -25 -31 -27 -55h21c6 38 27.667 57 65 57c18.667 0 34 -6 46 -18c12 -11.333 18 -26.333 18 -45l-4 -25
l-12 -19c-11.333 -11.333 -26.666 -17 -45.999 -17h-19v-26h19l21 -4c6 -2 12.667 -6 20 -12c17.333 -13.333 26 -32.333 26 -57c0 -20 -7 -37 -21 -51c-14.667 -13.333 -31.667 -20 -51 -20c-16.667 0 -31.334 5.66699 -44.001 17c-12 11.333 -20 23 -24 35h-20
c12.667 -46.667 42 -70 88 -70c27.333 0 49.333 8.33301 66 25c17.333 16 26 37.333 26 64zM327 353.999v26h-255v-26h255zM292 59.999v18h-28v247l-184 -265h165v-61h19v61h28zM245 77.999h-132l132 187v-187z" />
    <glyph glyph-name="questiondown" unicode="&#xbf;" horiz-adv-x="469" 
d="M280 612c-4 23.333 -15.667 35 -35 35c-23.333 -4 -35 -15.667 -35 -35c4 -23.333 15.667 -35 35 -35c23.333 4 35 15.667 35 35zM423 53l-38.002 17.001c-9.33301 -16 -18.666 -30 -27.999 -42s-18.666 -22 -27.999 -30c-30.667 -25.333 -66 -38 -106 -38
c-38.667 0 -71.334 8.66699 -98.001 26c-31.333 20 -47 48.667 -47 86c0 28.667 11.667 56.667 35 84c5.33301 6.66699 14.333 15 27 25l48 37l85 63c46.667 34.667 70 73.667 70 117c0 28.667 -10 51.667 -30 69c-20 16.667 -44.333 25 -73 25c-38 0 -67 -10 -87 -30
l24 -33c8.66699 8.66699 17.667 14 27 16c8 3.33301 20 5 36 5c16.667 0 30.667 -4.66699 42 -14s17 -22 17 -38c0 -34.667 -16.667 -64 -50 -88l-84 -61l-57 -42c-14 -10.667 -22.667 -18.334 -26 -23.001c-30 -34 -45 -71.333 -45 -112c0 -52 18.667 -91 56 -117
c32 -23.333 75.333 -35 130 -35c96.667 0 163.334 44.333 200.001 133z" />
    <glyph glyph-name="Agrave" unicode="&#xc0;" horiz-adv-x="633" 
d="M343 772l-121 121l-20 -22l118 -119zM602 0l-286 737l-285 -737h40l83 214h325l82 -214h41zM462 255h-292l146 378z" />
    <glyph glyph-name="Aacute" unicode="&#xc1;" horiz-adv-x="633" 
d="M426 865l-20 20l-111 -112l19 -19zM602 0l-286 737l-285 -737h40l83 214h325l82 -214h41zM462 255h-292l146 378z" />
    <glyph glyph-name="Acircumflex" unicode="&#xc2;" horiz-adv-x="633" 
d="M439 757l-121 121l-121 -121l21 -21l100 99l100 -99zM602 0l-286 737l-285 -737h40l83 214h325l82 -214h41zM462 255h-292l146 378z" />
    <glyph glyph-name="Atilde" unicode="&#xc3;" horiz-adv-x="628" 
d="M476 800l-29 22c-14 -14 -23.667 -22 -29 -24l-12 -4h-23l-35 4l-29 12c-3.33301 2 -6.33301 3.66699 -9 5l-8 4c-18 6.66699 -35.333 10 -52 10c-44.667 0 -76.334 -17 -95.001 -51l28 -22c16.667 22 37.334 33 62.001 33c14.667 0 26.667 -2 36 -6l29 -12
c20 -12 45.667 -18 77 -18c20.667 0 38.667 4.66699 54 14l16 13zM602 0l-286 737l-285 -737h40l83 214h325l82 -214h41zM462 255h-292l146 378z" />
    <glyph glyph-name="Adieresis" unicode="&#xc4;" horiz-adv-x="628" 
d="M414 796c-5.33301 22 -16.333 33 -33 33c-22 -4 -33 -15 -33 -33c0.666992 -10 4 -18 10 -24c8 -6 15.667 -9 23 -9c22 0 33 11 33 33zM277 796c-5.33301 22 -16.333 33 -33 33c-22 -4 -33 -15 -33 -33c0.666992 -10 4 -18 10 -24c8 -6 15.667 -9 23 -9c22 0 33 11 33 33
zM602 0l-286 737l-285 -737h40l83 214h325l82 -214h41zM462 255h-292l146 378z" />
    <glyph glyph-name="Aring" unicode="&#xc5;" horiz-adv-x="633" 
d="M384 813c0 18.667 -6.66699 34.667 -20 48s-29.333 20 -48 20s-34.667 -6.66699 -48 -20s-20 -29.333 -20 -48s6.66699 -34.667 20 -48s29.333 -20 48 -20s34.667 6.66699 48 20s20 29.333 20 48zM602 0l-286 737l-285 -737h40l83 214h325l82 -214h41zM366 814
c0 -12.667 -5.33301 -24.333 -16 -35c-10 -10.667 -21.333 -16 -34 -16c-15.333 0 -27.333 5 -36 15c-9.33301 9.33301 -14 21.333 -14 36c0 14 5 26 15 36c9.33301 9.33301 21 14 35 14c13.333 0 25 -5 35 -15s15 -21.667 15 -35zM462 255.001h-292l146 378z" />
    <glyph glyph-name="AE" unicode="&#xc6;" horiz-adv-x="740" 
d="M686 0v41h-303v331h303v41h-302v260h302v41h-339l-318 -714h40l146 327h127v-327h344zM342 367h-108l108 243v-243z" />
    <glyph glyph-name="Ccedilla" unicode="&#xc7;" horiz-adv-x="702" 
d="M668 77l-0.00488281 47.002c-38.667 -28 -70.667 -48.333 -96 -61c-44 -21.333 -95.667 -32 -155 -32c-95.333 0 -173.666 30.667 -234.999 92c-60.667 60.667 -91 138.667 -91 234s30.667 173.666 92 234.999s139.333 92 234 92c55.333 0 108.333 -10.333 159 -31
c33.333 -14 64 -32.667 92 -56v51c-27.333 21.333 -55.666 37.666 -84.999 48.999c-49.333 18 -104.666 27 -165.999 27c-108 0 -196.333 -34.333 -265 -103c-68 -68 -102 -156 -102 -264c0 -104.667 32 -190.334 96 -257.001c71.333 -73.333 152.333 -110 243 -110l-16 -37
c8.66699 -2 16.334 -7 23.001 -15s10 -15.667 10 -23c0 -16 -9.33301 -24 -28 -24c-16 0 -29.333 6.33301 -40 19l-16 -33c18.667 -18.667 41.334 -28 68.001 -28c40.667 0 61 20 61 60c0 20.667 -10.333 38.334 -31 53.001l11 28c59.333 0 111 10.333 155 31l33 21z" />
    <glyph glyph-name="Egrave" unicode="&#xc8;" horiz-adv-x="473" 
d="M265 772l-120 121l-21 -22l119 -119zM414 0v41h-302v328h302v44h-302v260h302v41h-343v-714h343z" />
    <glyph glyph-name="Eacute" unicode="&#xc9;" horiz-adv-x="473" 
d="M354 865l-21 22l-112 -116l21 -17zM414 0v41h-302v328h302v44h-302v260h302v41h-343v-714h343z" />
    <glyph glyph-name="Ecircumflex" unicode="&#xca;" horiz-adv-x="473" 
d="M367 777l-120 121l-121 -121l21 -21l100 99l100 -99zM414 0v41h-302v328h302v44h-302v260h302v41h-343v-714h343z" />
    <glyph glyph-name="Edieresis" unicode="&#xcb;" horiz-adv-x="473" 
d="M346 796c-5.33301 22 -16.333 33 -33 33c-22 -4 -33 -15 -33 -33c0.666992 -10 4 -18 10 -24c8 -6 15.667 -9 23 -9c22 0 33 11 33 33zM209 796c-5.33301 22 -16.333 33 -33 33c-22 -4 -33 -15 -33 -33c0.666992 -10 4 -18 10 -24c8 -6 15.667 -9 23 -9c22 0 33 11 33 33
zM414 0v41h-302v328h302v44h-302v260h302v41h-343v-714h343z" />
    <glyph glyph-name="Igrave" unicode="&#xcc;" horiz-adv-x="192" 
d="M129 772l-120 121l-21 -22l119 -119zM117 0v714h-40v-714h40z" />
    <glyph glyph-name="Iacute" unicode="&#xcd;" horiz-adv-x="192" 
d="M201 865l-19 20l-112 -112l20 -19zM117 0v714h-40v-714h40z" />
    <glyph glyph-name="Icircumflex" unicode="&#xce;" horiz-adv-x="192" 
d="M216 757l-120 121l-122 -121l22 -21l100 99l100 -99zM117 0v714h-40v-714h40z" />
    <glyph glyph-name="Idieresis" unicode="&#xcf;" horiz-adv-x="192" 
d="M197 796c-5.33301 22 -16.333 33 -33 33c-22 -4 -33 -15 -33 -33c0.666992 -10 4 -18 10 -24c8 -6 15.667 -9 23 -9c22 0 33 11 33 33zM60 796c-5.33301 22 -16.333 33 -33 33c-22 -4 -33 -15 -33 -33c0.666992 -10 4 -18 10 -24c8 -6 15.667 -9 23 -9c22 0 33 11 33 33z
M117 0v714h-40v-714h40z" />
    <glyph glyph-name="Eth" unicode="&#xd0;" horiz-adv-x="688" 
d="M633 358c0 98 -28.333 180.667 -85 248c-60 72 -138 108 -234 108h-238v-334h-44v-41h44v-339h238c96.667 0 175 36 235 108c56 68 84 151.333 84 250zM592 358c0 -98 -29 -176.334 -87 -235.001c-54 -54.667 -117.667 -82 -191 -82h-198v298h127v41h-127v294h198
c84.667 0 153 -32 205 -96c48.667 -59.333 73 -132.666 73 -219.999z" />
    <glyph glyph-name="Ntilde" unicode="&#xd1;" horiz-adv-x="715" 
d="M521 800l-29 22c-14 -14 -23.667 -22 -29 -24l-12 -4h-23l-35 4l-29 12c-3.33301 2 -6.33301 3.66699 -9 5l-8 4c-18 6.66699 -35.333 10 -52 10c-44.667 0 -76.334 -17 -95.001 -51l28 -22c16.667 22 37.334 33 62.001 33c14.667 0 26.667 -2 36 -6l29 -12
c20 -12 45.667 -18 77 -18c20.667 0 38.667 4.66699 54 14l16 13zM651 -12v726h-41v-620l-533 625v-719h40v606z" />
    <glyph glyph-name="Ograve" unicode="&#xd2;" horiz-adv-x="822" 
d="M432 772l-121 121l-20 -22l118 -119zM785 357c0 108 -34.334 196.333 -103.001 265c-69.333 68 -157.666 102 -264.999 102c-108 0 -196.333 -34.333 -265 -103c-68 -68 -102 -156 -102 -264s34.333 -196.333 103 -265c68 -68 156 -102 264 -102s196.333 34.333 265 103
c68.667 68 103 156 103 264zM743.999 357c0 -96.667 -30.334 -175.332 -91.001 -235.999c-61.333 -60 -140 -90 -236 -90c-95.333 0 -173.666 30.667 -234.999 92c-60.667 60.667 -91 138.667 -91 234s30.667 173.666 92 234.999s139.333 92 234 92
c96 0 174.667 -30.667 236 -92c60.667 -60.667 91 -139 91 -235z" />
    <glyph glyph-name="Oacute" unicode="&#xd3;" horiz-adv-x="822" 
d="M511 865l-19 20l-111 -112l19 -19zM785 357c0 108 -34.334 196.333 -103.001 265c-69.333 68 -157.666 102 -264.999 102c-108 0 -196.333 -34.333 -265 -103c-68 -68 -102 -156 -102 -264s34.333 -196.333 103 -265c68 -68 156 -102 264 -102s196.333 34.333 265 103
c68.667 68 103 156 103 264zM743.999 357c0 -96.667 -30.334 -175.332 -91.001 -235.999c-61.333 -60 -140 -90 -236 -90c-95.333 0 -173.666 30.667 -234.999 92c-60.667 60.667 -91 138.667 -91 234s30.667 173.666 92 234.999s139.333 92 234 92
c96 0 174.667 -30.667 236 -92c60.667 -60.667 91 -139 91 -235z" />
    <glyph glyph-name="Ocircumflex" unicode="&#xd4;" horiz-adv-x="822" 
d="M535 782l-121 121l-121 -121l21 -21l100 99l100 -99zM785 357c0 108 -34.334 196.333 -103.001 265c-69.333 68 -157.666 102 -264.999 102c-108 0 -196.333 -34.333 -265 -103c-68 -68 -102 -156 -102 -264s34.333 -196.333 103 -265c68 -68 156 -102 264 -102
s196.333 34.333 265 103c68.667 68 103 156 103 264zM743.999 357c0 -96.667 -30.334 -175.332 -91.001 -235.999c-61.333 -60 -140 -90 -236 -90c-95.333 0 -173.666 30.667 -234.999 92c-60.667 60.667 -91 138.667 -91 234s30.667 173.666 92 234.999s139.333 92 234 92
c96 0 174.667 -30.667 236 -92c60.667 -60.667 91 -139 91 -235z" />
    <glyph glyph-name="Otilde" unicode="&#xd5;" horiz-adv-x="822" 
d="M566 812l-29 22c-14 -14 -23.667 -22 -29 -24l-12 -4h-23l-35 4l-29 12c-3.33301 2 -6.33301 3.66699 -9 5l-8 4c-18 6.66699 -35.333 10 -52 10c-44.667 0 -76.334 -17 -95.001 -51l28 -22c16.667 22 37.334 33 62.001 33c14.667 0 26.667 -2 36 -6l29 -12
c20 -12 45.667 -18 77 -18c20.667 0 38.667 4.66699 54 14l16 13zM785 357c0 108 -34.334 196.333 -103.001 265c-69.333 68 -157.666 102 -264.999 102c-108 0 -196.333 -34.333 -265 -103c-68 -68 -102 -156 -102 -264s34.333 -196.333 103 -265c68 -68 156 -102 264 -102
s196.333 34.333 265 103c68.667 68 103 156 103 264zM743.999 357c0 -96.667 -30.334 -175.332 -91.001 -235.999c-61.333 -60 -140 -90 -236 -90c-95.333 0 -173.666 30.667 -234.999 92c-60.667 60.667 -91 138.667 -91 234s30.667 173.666 92 234.999s139.333 92 234 92
c96 0 174.667 -30.667 236 -92c60.667 -60.667 91 -139 91 -235z" />
    <glyph glyph-name="Odieresis" unicode="&#xd6;" horiz-adv-x="822" 
d="M515 796c-5.33301 22 -16.333 33 -33 33c-22 -4 -33 -15 -33 -33c0.666992 -10 4 -18 10 -24c8 -6 15.667 -9 23 -9c22 0 33 11 33 33zM378 796c-5.33301 22 -16.333 33 -33 33c-22 -4 -33 -15 -33 -33c0.666992 -10 4 -18 10 -24c8 -6 15.667 -9 23 -9c22 0 33 11 33 33
zM785 357c0 108 -34.334 196.333 -103.001 265c-69.333 68 -157.666 102 -264.999 102c-108 0 -196.333 -34.333 -265 -103c-68 -68 -102 -156 -102 -264s34.333 -196.333 103 -265c68 -68 156 -102 264 -102s196.333 34.333 265 103c68.667 68 103 156 103 264z
M743.999 357c0 -96.667 -30.334 -175.332 -91.001 -235.999c-61.333 -60 -140 -90 -236 -90c-95.333 0 -173.666 30.667 -234.999 92c-60.667 60.667 -91 138.667 -91 234s30.667 173.666 92 234.999s139.333 92 234 92c96 0 174.667 -30.667 236 -92
c60.667 -60.667 91 -139 91 -235z" />
    <glyph glyph-name="multiply" unicode="&#xd7;" horiz-adv-x="942" 
d="M649 347l-5.49805 -8.99902c-1.66699 -2.66699 -3.5 -5.33398 -5.5 -8.00098v17c1.33301 0 2.66602 1 3.99902 3s2.66602 3.66699 3.99902 5zM719.002 458.001l-11 -14l10 19zM726.002 373.001c1.33301 6.66699 2.66699 11.667 4 15l-2 -15h-2zM869.003 348.001
c-14 0 -30.665 2.66602 -49.998 7.99902s-36 9.66602 -50 12.999c0.666992 2.66699 1.33398 5.16699 2.00098 7.5s1 4.83301 1 7.5c2 -0.666992 4.66699 -1 8 -1s5.66602 -0.666992 6.99902 -2l2 1c8.66699 -2 18 -3 28 -3l3 3c0 2.66699 -4 4.33398 -12 5.00098
s-13 1.33398 -15 2.00098l1 4h15c16.667 0 33.167 -1 49.5 -3s32.166 -6.66699 47.499 -14c-4.66699 -6.66699 -12.334 -11.667 -23.001 -15l-2 -3c0.666992 -5.33301 0.166992 -8.33301 -1.5 -9s-5.16699 -1 -10.5 -1zM728.005 367h-2h2zM802.005 354l-1.00195 -2.00098
c0 -1.33301 2.33301 -2.66602 7 -3.99902l15.5 -4.5c5.66699 -1.66699 11.334 -3 17.001 -4s9.5 -1.83301 11.5 -2.5c-15.333 2.66699 -30.166 5.5 -44.499 8.5s-28.5 6.5 -42.5 10.5l2 7c6 -1.33301 11.833 -2.83301 17.5 -4.5s11.5 -3.16699 17.5 -4.5zM848.003 343.999
c7.33301 -1.33301 12.001 -2 14.001 -2c2.66699 0 7.66699 -1.66699 15 -5c-5.33301 1.33301 -10.333 2.5 -15 3.5s-9.33398 2.16699 -14.001 3.5zM775.004 398.999c3.33301 12 6 24 8 36s4.33301 24.333 7 37c-1.33301 -12.667 -2.5 -25 -3.5 -37s-1.83301 -24 -2.5 -36h-9
zM733.004 358.999l21.001 -6c-2 -4.66699 -5.83301 -11 -11.5 -19s-10.167 -14.667 -13.5 -20c1.33301 7.33301 2.16602 14.833 2.49902 22.5s0.833008 15.167 1.5 22.5zM734.005 366.999h12c2.66699 0 6.66699 -0.666992 12 -2l-2 -7c-4 1.33301 -7.83301 2.5 -11.5 3.5
s-7.16699 2.16699 -10.5 3.5v2zM736.005 391.999l13.502 -2l13.5 -2l3 -2c-0.666992 -3.33301 -2.33398 -8.33301 -5.00098 -15c-4.66699 1.33301 -9.33398 2 -14.001 2h-13zM725.007 446.999v10l9 13c-1.33301 -4 -2.83301 -8 -4.5 -12zM684.007 405.999
c0.666992 0 1.16699 -0.166992 1.5 -0.5s0.833008 -0.5 1.5 -0.5s2.5 2 5.5 6l10 14l10.5 15c3.33301 4.66699 5.33301 7.66699 6 9c0.666992 -3.33301 1 -8.33301 1 -15c0 -2 -1.83301 -6.83301 -5.5 -14.5s-8 -16.167 -13 -25.5l-14.5 -26.5
c-4.66699 -8.33301 -7.66699 -13.833 -9 -16.5c1.33301 9.33301 2.33301 18.5 3 27.5s1.66699 18.167 3 27.5zM650.007 359.999c4 5.33301 7 9 9 11c0 -4 -0.5 -6.83301 -1.5 -8.5s-2.83301 -4.5 -5.5 -8.5zM658.007 351.999v-14l-3 8zM642.007 365.999l1 -4l-2 -3z
M259.007 521.999h-2.00098c-1.33301 0.666992 -3.66602 1 -6.99902 1l-6 6l2 1c2 -0.666992 4.33301 -1.66699 7 -3s4.66699 -3 6 -5zM279.006 517.999h1h-1zM57.0059 244.999v68.999c32.667 -1.33301 65 -4.66602 97 -9.99902s64.333 -10.333 97 -15v-11
c-65.333 -7.33301 -130 -18.333 -194 -33zM251.006 380.998v-20.001c-10 0.666992 -21.667 1.33398 -35 2.00098s-26.5 2.16699 -39.5 4.5s-25.333 5.83301 -37 10.5s-20.5 11.667 -26.5 21c1.33301 1.33301 3.66602 2 6.99902 2c22.667 0 44.834 -2 66.501 -6
s43.167 -8.66699 64.5 -14zM315.006 339.997c-3.33301 3.33301 -6.99805 6.16895 -10.998 8.50195s-8 4.16602 -12 5.49902v16c11.333 -3.33301 22.666 -6.33301 33.999 -9s22.666 -5 33.999 -7c-5.33301 -4.66699 -12.5 -7.83398 -21.5 -9.50098zM272.008 287h-1h1z
M251.008 330v-7.99805c-4.66699 1.33301 -9 2.66602 -13 3.99902s-8.33301 2.66602 -13 3.99902h26zM307.008 339.002c-2.66699 0 -5.16699 -0.166992 -7.5 -0.5s-4.83301 -0.5 -7.5 -0.5v10c4.66699 -2 9.66699 -5 15 -9zM323.008 299.002h-24.998c2.66699 0 4 1 4 3
c0 1.33301 -1.33301 2.33301 -4 3s-4.66699 1.33398 -6 2.00098v25c3.33301 0.666992 6.66602 1 9.99902 1s6.66602 0.333008 9.99902 1c4 -5.33301 6.66699 -10.833 8 -16.5s2.33301 -11.834 3 -18.501zM251.01 272.002v-44.001c-16 -3.33301 -32 -5.66602 -48 -6.99902
s-32.333 -2 -49 -2h-26c-12 0 -24 0.833008 -36 2.5s-23.667 3.5 -35 5.5v11c32 8 64.167 14.833 96.5 20.5s64.833 10.167 97.5 13.5zM321.01 279.001c-2 -7.33301 -5.66602 -13.998 -10.999 -19.998s-11.333 -11 -18 -15v10c0 1.33301 0.333008 3.16602 1 5.49902
s1.33398 4.16602 2.00098 5.49902l-3 1v11c5.33301 0 10.166 0.166992 14.499 0.5s9.16602 0.833008 14.499 1.5zM323.011 293.003l0.00195312 -4.99805c-1.33301 0 -3.5 0.166992 -6.5 0.5s-6.33301 0.666016 -10 0.999023s-6.83398 0.666016 -9.50098 0.999023
s-4.33398 0.5 -5.00098 0.5v2h31zM292.013 233.005l0.000976562 4.00195c8.66699 4.66699 16.167 10.5 22.5 17.5s10.5 15.167 12.5 24.5c0.666992 0 2.66699 0.166992 6 0.5l10 1c3.33301 0.333008 6.33301 0.666016 9 0.999023s4 1.16602 4 2.49902s-1.33301 2.33301 -4 3
s-5.66699 1 -9 1h-9h-5v6c30 1.33301 59.333 3.33301 88 6c-20.667 -12 -41.334 -23.333 -62.001 -34zM256.014 432.007l1 -1zM215.014 436.007l13 -1zM292.014 436.007l0.000976562 1c1.33301 -0.666992 3.66602 -1 6.99902 -1h-7zM342.015 422.007
c1.33301 0 3.33301 0.666016 6 1.99902h4c-1.33301 -1.33301 -2 -2.66602 -2 -3.99902zM325.015 416.006h1h2h-3zM249.015 446.006l1 -4h-5zM233.015 481.006c3.33301 -4 6.16895 -8.33398 8.50195 -13.001s4.16602 -9.66699 5.49902 -15l-11 -10
c-1.33301 0 -3.66602 0.166992 -6.99902 0.5s-7 0.5 -11 0.5s-7.5 -0.333008 -10.5 -1s-4.5 -2 -4.5 -4l8 -2v-6c7.33301 0 14.166 -0.666992 20.499 -2s12.833 -3 19.5 -5v-37c-21.333 5.33301 -42.666 10 -63.999 14s-42.666 6 -63.999 6c-2.66699 0 -6 -0.333008 -10 -1
s-6 -2.66699 -6 -6c0 -9.33301 6.16699 -16.833 18.5 -22.5s26.666 -10 42.999 -13s32.5 -5.16699 48.5 -6.5s27.333 -2.33301 34 -3v-19c-2 0 -6.16699 0.166992 -12.5 0.5s-12.833 0.5 -19.5 0.5s-12.667 -0.333008 -18 -1s-8 -2 -8 -4
c1.33301 -1.33301 4.66602 -2.83301 9.99902 -4.5s11 -3.33398 17 -5.00098s11.833 -3.16699 17.5 -4.5s10.167 -2.33301 13.5 -3v-14c-32.667 2 -65 5.33301 -97 10s-64.333 7.66699 -97 9v105c0 28 9.16699 50.667 27.5 68s41.5 26 69.5 26c9.33301 0 18.5 -1 27.5 -3
s17.5 -5.66699 25.5 -11c-1.33301 -1.33301 -1.33301 -2.66602 0 -3.99902s3.16602 -2.66602 5.49902 -3.99902s4.66602 -2.5 6.99902 -3.5s4.16602 -1.83301 5.49902 -2.5c-2 0 -5.5 -0.166992 -10.5 -0.5s-10.167 -0.833008 -15.5 -1.5s-10.166 -1.5 -14.499 -2.5
s-6.5 -2.16699 -6.5 -3.5l3 -4h26c8.66699 0 17.334 0.666992 26.001 2zM266.018 517.005l2 -0.998047c-1.33301 -1.33301 -2.66602 -2.16602 -3.99902 -2.49902s-2.66602 -0.833008 -3.99902 -1.5c-0.666992 1.33301 -1.33398 2.16602 -2.00098 2.49902
s-1.33398 1.16602 -2.00098 2.49902c1.33301 -0.666992 3 -0.833984 5 -0.500977s3.66699 0.5 5 0.5zM276.018 503.007l-3.99902 0.000976562h-6l-1 3c1.33301 1.33301 3.5 2.66602 6.5 3.99902s5.5 2 7.5 2c-0.666992 -1.33301 -1.33398 -2.5 -2.00098 -3.5
s-1 -2.16699 -1 -3.5v-2zM308.019 486.008c0.666992 1.33301 1.66504 2.66699 2.99805 4l5 -5c-1.33301 0 -2.66602 0.166992 -3.99902 0.5s-2.66602 0.5 -3.99902 0.5zM275.017 497.009h-1h1zM242.017 537.009c-1.33301 0 -3.5 0.167969 -6.5 0.500977
s-5.16699 1.16602 -6.5 2.49902l4 4zM136.017 755.01h18h-5h-4h-9zM363.017 411.01h-2l-1 2l10 -2h-7zM292.017 142.01l0.000976562 40c6.66699 -2 12.667 -4.66699 18 -8s10.666 -7 15.999 -11c-8.66699 -10 -20 -17 -34 -21zM260.018 25.0098
c0.666992 -1.33301 2.66602 -2 5.99902 -2h8c-2.66699 -0.666992 -5.16699 -1.16699 -7.5 -1.5s-5.16602 -0.5 -8.49902 -0.5h-4c-4.66699 0 -9 0.166992 -13 0.5s-8 0.833008 -12 1.5c4 1.33301 7.66699 2 11 2h20zM311.017 24.0098v1.00098
c9.33301 0 18.666 0.166992 27.999 0.5s18.666 1.16602 27.999 2.49902c-9.33301 -2 -18.666 -3 -27.999 -3s-18.666 -0.333008 -27.999 -1zM307.017 31.0107l-8.00488 5.99902c14.667 2 29.334 3.66699 44.001 5s29.334 2 44.001 2v6l-108 -5l21 2l1 6l-33 8
c9.33301 5.33301 19.166 9 29.499 11s20.5 4.66699 30.5 8v6c-26 6 -51 14 -75 24l21 3l1 6l-29 9c15.333 1.33301 30.833 4 46.5 8s28.834 12.333 39.501 25v4l-40 23v38l70 36.5l70 38.5l-1 6l-102 -7l-10 35c9.33301 1.33301 18 3.66602 26 6.99902s15.667 7.33301 23 12
l-1 5c-13.333 2 -26 4.5 -38 7.5l-37 9.5v26l7 5l68 -8l3 2l15 -3l2 6l-7 2l21 2v6l-43 5l15 1l1 6c-14 4 -27.667 6.5 -41 7.5s-26.666 4.16699 -39.999 9.5l7 29l6 5l60 -2l-40 7l-11 12c9.33301 10 20.666 16.667 33.999 20s26.666 5 39.999 5
c27.333 0 50.333 -8.66699 69 -26s28 -40 28 -68v-425h41v339l6 6l344 -345h57l-366 367l17 3l3 -17l14 15l-3 -13l5 -3l13 12l-2 -20l6 -2l12 18l-1 -40l5 -2l14 21l5 -18h6l6 19v-17h6c0 4 2 10.167 6 18.5l13.5 27.5c5 10 10.167 19.5 15.5 28.5s9 16.167 11 21.5l-1 -46
l-13 -6l21 -7l-6 -60l6 -2l14 25l3 -8l18 36c22.667 -6 45.5 -11.333 68.5 -16s46.167 -8.66699 69.5 -12l-17 -15l25 -9l-43 -9l-1 -6l27 -12l2 6l-18 7l44 11v6l-28 9l17 11l29 -3v6c-10 0.666992 -20.333 2 -31 4s-20 6.66699 -28 14
c3.33301 6.66699 8.33301 12.667 15 18s13 10 19 14l-1 5c-17.333 8.66699 -35.333 14 -54 16s-37.334 3 -56.001 3l10 21l-5 3l-15 -24h-1c0.666992 18 2 36.167 4 54.5s3 36.5 3 54.5l-6 1c-4.66699 -18.667 -8.5 -37.167 -11.5 -55.5s-6.5 -36.5 -10.5 -54.5h-32l2 21
l-6 1l-6 -22h-1v7c-0.666992 14 1.33301 27.667 6 41l14 40l-5 3l-17 -24l-7 8l-32 -64l-8 1l-7 -34l-3 17c-2.66699 -5.33301 -5.66699 -10.166 -9 -14.499l-10 -12.5l-8 25l-6 -1l-1 -20l-11 -16l1 17l-5 2l-11 -11l9 22l-5 3l-21 -25c2 3.33301 2.33301 7.83301 1 13.5
s-2.66602 10.167 -3.99902 13.5l-1 -14l-23 -4l-1 1l342 341h-58l-319 -317v317h-41v-187c-13.333 11.333 -28.5 19.5 -45.5 24.5s-34.167 7.5 -51.5 7.5c-11.333 0 -21 -1.16699 -29 -3.5s-15.833 -5.33301 -23.5 -9s-15.167 -7.66699 -22.5 -12
s-15.666 -8.5 -24.999 -12.5l-29 10v2l-7 1l-18 15l-12 -7l-19 8l46 7v6l-40 8c8.66699 -1.33301 17.334 -1.5 26.001 -0.5s17.334 2.83301 26.001 5.5v6l-72 22h47c16.667 0 33 1 49 3s31.5 5.66699 46.5 11s28.5 13.666 40.5 24.999l-2 5
c-35.333 0 -70.833 -0.5 -106.5 -1.5s-70.5 3.83301 -104.5 14.5l46 19l-2 6c-12.667 -2.66699 -25.334 -4.16699 -38.001 -4.5s-25.667 -0.833008 -39 -1.5c4.66699 4 14.5 6.66699 29.5 8s31.167 2.33301 48.5 3s34 1 50 1c16.667 0 29 0.666992 37 2v6
c-17.333 2.66699 -34.5 5.5 -51.5 8.5s-33.833 7.16699 -50.5 12.5c16 7.33301 32 14.166 48 20.499s33 9.83301 51 10.5l2 6l76 16l-1 6l-49 2c-14 0.666992 -28 0 -42 -2s-28 -2.33301 -42 -1l17 14l-30 9l35 58l-6 4l-9.5 -15.5l-13.5 -22.5
c-4.66699 -8 -8.5 -15.5 -11.5 -22.5s-4.16699 -12.167 -3.5 -15.5l20 4l10 -3l-25 -12c2.66699 -1.33301 7.83398 -2.5 15.501 -3.5s13.167 -1.5 16.5 -1.5c16.667 0 33 0.833008 49 2.5s32.333 1.83398 49 0.500977c-12 -3.33301 -24.167 -6.5 -36.5 -9.5
s-24.833 -4.5 -37.5 -4.5l-22 4l-2 4c-14.667 0.666992 -29 2.16699 -43 4.5s-28.333 4.5 -43 6.5v-6l37 -6l-24 2v-6l66 -7c-17.333 -1.33301 -35 -2 -53 -2s-35.667 -1 -53 -3l88 -6h9l-51 -22v-6c13.333 -5.33301 27 -9.5 41 -12.5s28 -5.5 42 -7.5
c-24 -0.666992 -48.667 -1.16699 -74 -1.5s-48.666 -6.83301 -69.999 -19.5l3 -3h29c10 0 19.667 0.666992 29 2l-30 -12v-6c19.333 -7.33301 39.5 -12.166 60.5 -14.499s41.833 -3.16602 62.5 -2.49902l89 1c-11.333 -8.66699 -23.833 -15.167 -37.5 -19.5
s-27.667 -7.5 -42 -9.5s-28.833 -3 -43.5 -3h-43c-1.33301 0 -3.83301 0.166992 -7.5 0.5s-7.5 0.333008 -11.5 0s-7.33301 -1 -10 -2s-3 -2.5 -1 -4.5c14.667 -3.33301 29 -7.16602 43 -11.499l42 -13.5l-21 -3c-11.333 0 -22.5 1 -33.5 3s-22.167 3.66699 -33.5 5l-1 -6
c22.667 -7.33301 45.667 -13.333 69 -18l-20.5 -4c-7 -1.33301 -14.167 -2 -21.5 -2c-13.333 0 -26.333 0.166992 -39 0.5s-24.5 -0.5 -35.5 -2.5s-21.5 -6 -31.5 -12s-19 -15.667 -27 -29v41h-41v-319l-9 -2l9 -6v-86h41v81c32 -5.33301 64.333 -8.33301 97 -9
s65 2.66602 97 9.99902c-1.33301 -4.66699 -2.16602 -10.5 -2.49902 -17.5s-0.333008 -14.5 0 -22.5s0.833008 -15.833 1.5 -23.5s1 -13.834 1 -18.501h34c-9.33301 -2.66699 -18.5 -4.33398 -27.5 -5.00098l-27.5 -2l-1 -6l31 -10l-18 -3v-6c12 -5.33301 24 -10 36 -14
s24.667 -7.66699 38 -11c-9.33301 -3.33301 -18.833 -6.16602 -28.5 -8.49902s-18.834 -5.83301 -27.501 -10.5l17 -13l-13 -2l-1 -6l4 -1c-13.333 -1.33301 -26.833 -2.33301 -40.5 -3s-27.167 -1 -40.5 -1l-1 -6l33 -5l-7 -8c26.667 -1.33301 53 -6 79 -14l2 6l-15 3
c16 2 33 2.83301 51 2.5s34.333 3.83398 49 12.501c-2.66699 0.666992 -5.66699 1.5 -9 2.5s-6.33301 1.5 -9 1.5zM266.012 31.0098l12 1.99902l12 2c1.33301 -0.666992 2.5 -1.16699 3.5 -1.5s2.16699 -1.16602 3.5 -2.49902h-21h-10zM259.012 36.0088
c-2.66699 -0.666992 -6 -1.66699 -10 -3s-7 -2 -9 -2c-4 0 -7.83301 0.166992 -11.5 0.5s-7.16699 0.833008 -10.5 1.5c13.333 0 27 1 41 3zM360.012 412.009l1 -1h2z" />
    <glyph glyph-name="Oslash" unicode="&#xd8;" horiz-adv-x="822" 
d="M785 357c0 123.333 -44.334 219.999 -133.001 289.999l42 60l-37 23l-41 -58c-58.667 34.667 -125 52 -199 52c-108 0 -196.333 -34.333 -265 -103c-68 -68 -102 -156 -102 -264c0 -58 11.667 -113 35 -165c24 -53.333 59 -96.666 105 -129.999l-40 -58l36 -24l40 58
c58.667 -32 122.334 -48 191.001 -48c108 0 196.333 34.333 265 103c68.667 68 103 156 103 264zM743.999 356.999c0 -96.667 -30.333 -175.333 -91 -236c-61.333 -60 -140 -90 -236 -90c-60 0 -115.667 13.667 -167 41l378 541c77.333 -62 116 -147.333 116 -256z
M592.999 638l-379.001 -541.999c-40 29.333 -70.333 66 -91 110c-21.333 44.667 -32 95 -32 151c0 95.333 30.667 173.666 92 234.999s139.333 92 234 92c62.667 0 121.334 -15.333 176.001 -46z" />
    <glyph glyph-name="Ugrave" unicode="&#xd9;" horiz-adv-x="555" 
d="M314 772l-120 121l-21 -22l119 -119zM490 178l0.000976562 536.001h-41v-536c0 -44.667 -17 -80.334 -51 -107.001c-31.333 -24.667 -70 -37 -116 -37c-46.667 0 -85.334 12 -116.001 36c-33.333 26 -50 62 -50 108v536h-40v-536c0 -58 20.333 -104 61 -138
c38.667 -31.333 87 -47 145 -47c60 0 108.333 15.333 145 46c42 34.667 63 81 63 139z" />
    <glyph glyph-name="Uacute" unicode="&#xda;" horiz-adv-x="555" 
d="M398 865l-19 20l-112 -112l20 -19zM490 178l0.000976562 536.001h-41v-536c0 -44.667 -17 -80.334 -51 -107.001c-31.333 -24.667 -70 -37 -116 -37c-46.667 0 -85.334 12 -116.001 36c-33.333 26 -50 62 -50 108v536h-40v-536c0 -58 20.333 -104 61 -138
c38.667 -31.333 87 -47 145 -47c60 0 108.333 15.333 145 46c42 34.667 63 81 63 139z" />
    <glyph glyph-name="Ucircumflex" unicode="&#xdb;" horiz-adv-x="555" 
d="M404 782l-120 121l-122 -121l22 -21l100 99l100 -99zM490 178l0.000976562 536.001h-41v-536c0 -44.667 -17 -80.334 -51 -107.001c-31.333 -24.667 -70 -37 -116 -37c-46.667 0 -85.334 12 -116.001 36c-33.333 26 -50 62 -50 108v536h-40v-536
c0 -58 20.333 -104 61 -138c38.667 -31.333 87 -47 145 -47c60 0 108.333 15.333 145 46c42 34.667 63 81 63 139z" />
    <glyph glyph-name="Udieresis" unicode="&#xdc;" horiz-adv-x="555" 
d="M382 796c-5.33301 22 -16.333 33 -33 33c-22 -4 -33 -15 -33 -33c0.666992 -10 4 -18 10 -24c8 -6 15.667 -9 23 -9c22 0 33 11 33 33zM245 796c-5.33301 22 -16.333 33 -33 33c-22 -4 -33 -15 -33 -33c0.666992 -10 4 -18 10 -24c8 -6 15.667 -9 23 -9c22 0 33 11 33 33
zM490 178l0.000976562 536.001h-41v-536c0 -44.667 -17 -80.334 -51 -107.001c-31.333 -24.667 -70 -37 -116 -37c-46.667 0 -85.334 12 -116.001 36c-33.333 26 -50 62 -50 108v536h-40v-536c0 -58 20.333 -104 61 -138c38.667 -31.333 87 -47 145 -47
c60 0 108.333 15.333 145 46c42 34.667 63 81 63 139z" />
    <glyph glyph-name="Yacute" unicode="&#xdd;" horiz-adv-x="511" 
d="M379 865l-21 22l-112 -116l21 -17zM481 714h-47l-178 -309l-176 309h-47l203 -357v-357h41v357z" />
    <glyph glyph-name="Thorn" unicode="&#xde;" horiz-adv-x="490" 
d="M444 363c0 54 -18.667 97 -56 129s-83.333 48 -138 48h-134v174h-40v-714h40v183h134c54.667 0 100.667 16.667 138 50c37.333 32 56 75.333 56 130zM403 363c0 -43.333 -14.667 -77.667 -44 -103c-29.333 -24 -66 -36 -110 -36h-133v275h133
c44.667 0 80.667 -11.333 108 -34c30.667 -24.667 46 -58.667 46 -102z" />
    <glyph glyph-name="germandbls" unicode="&#xdf;" horiz-adv-x="539" 
d="M505 210c0 59.333 -18.666 106.668 -55.999 142.001c-30.667 28.667 -68.667 46 -114 52c53.333 35.333 80 84.666 80 147.999c0 46 -16.667 84.667 -50 116c-34 30.667 -74 46 -120 46c-53.333 0 -94.333 -16.333 -123 -49c-28.667 -31.333 -43 -74 -43 -128v-124h-57
v-41h57v-372h40v536c0 91.333 42 137 126 137c35.333 0 65.666 -11.667 90.999 -35s38 -52 38 -86c0 -36 -11.667 -68.333 -35 -97c-23.333 -28 -53 -42 -89 -42v-40c142.667 0 214 -54.333 214 -163c0 -46 -13.667 -85.333 -41 -118c-29.333 -34 -66.333 -51 -111 -51h-114
v-41h113c60.667 0 108.667 20 144 60c33.333 38.667 50 88.667 50 150z" />
    <glyph glyph-name="agrave" unicode="&#xe0;" horiz-adv-x="510" 
d="M284 492l-134 134l-22 -24l131 -133zM454 0v413h-41v-72c-44 52 -99 78 -165 78c-60 0 -110.667 -20.667 -152 -62c-40.667 -40.667 -61 -91 -61 -151s20.667 -110.667 62 -152c40.667 -40.667 91 -61 151 -61c66.667 0 121.667 26 165 78v-71h41zM421 206
c0 -48 -17 -89 -51 -123c-33.333 -33.333 -74 -50 -122 -50c-47.333 0 -88 17 -122 51s-51 74.667 -51 122c0 48 17 89 51 123c33.333 33.333 74 50 122 50c47.333 0 88 -17 122 -51s51 -74.667 51 -122z" />
    <glyph glyph-name="aacute" unicode="&#xe1;" horiz-adv-x="510" 
d="M372 602l-22 24l-134 -134l25 -23zM454 0v413h-41v-72c-44 52 -99 78 -165 78c-60 0 -110.667 -20.667 -152 -62c-40.667 -40.667 -61 -91 -61 -151s20.667 -110.667 62 -152c40.667 -40.667 91 -61 151 -61c66.667 0 121.667 26 165 78v-71h41zM421 206
c0 -48 -17 -89 -51 -123c-33.333 -33.333 -74 -50 -122 -50c-47.333 0 -88 17 -122 51s-51 74.667 -51 122c0 48 17 89 51 123c33.333 33.333 74 50 122 50c47.333 0 88 -17 122 -51s51 -74.667 51 -122z" />
    <glyph glyph-name="acircumflex" unicode="&#xe2;" horiz-adv-x="510" 
d="M365 496l-120 120l-122 -120l22 -22l100 99l100 -99zM454 0v413h-41v-72c-44 52 -99 78 -165 78c-60 0 -110.667 -20.667 -152 -62c-40.667 -40.667 -61 -91 -61 -151s20.667 -110.667 62 -152c40.667 -40.667 91 -61 151 -61c66.667 0 121.667 26 165 78v-71h41z
M421 206c0 -48 -17 -89 -51 -123c-33.333 -33.333 -74 -50 -122 -50c-47.333 0 -88 17 -122 51s-51 74.667 -51 122c0 48 17 89 51 123c33.333 33.333 74 50 122 50c47.333 0 88 -17 122 -51s51 -74.667 51 -122z" />
    <glyph glyph-name="atilde" unicode="&#xe3;" horiz-adv-x="510" 
d="M411 535l-28.002 21.9971c-16.667 -18.667 -39.667 -28 -69 -28l-31 4l-29 13c-10 6.66699 -19.333 11.334 -28 14.001c-5.33301 1.33301 -11.166 2.33301 -17.499 3s-13.833 1 -22.5 1c-44.667 0 -76.334 -17 -95.001 -51l27 -22c20.667 22 43.334 33 68.001 33l30 -4
c4.66699 -1.33301 9.33398 -3.16602 14.001 -5.49902s9.66699 -5.16602 15 -8.49902c18 -12 41.667 -18 71 -18c22.667 0 42.667 4.66699 60 14l16 13zM453.998 -0.00292969v413h-41v-72c-44 52 -99 78 -165 78c-60 0 -110.667 -20.667 -152 -62
c-40.667 -40.667 -61 -91 -61 -151s20.667 -110.667 62 -152c40.667 -40.667 91 -61 151 -61c66.667 0 121.667 26 165 78v-71h41zM420.998 205.997c0 -48 -17 -89 -51 -123c-33.333 -33.333 -74 -50 -122 -50c-47.333 0 -88 17 -122 51s-51 74.667 -51 122
c0 48 17 89 51 123c33.333 33.333 74 50 122 50c47.333 0 88 -17 122 -51s51 -74.667 51 -122z" />
    <glyph glyph-name="adieresis" unicode="&#xe4;" horiz-adv-x="510" 
d="M341 520c-5.33301 22 -16.333 33 -33 33c-22 -4 -33 -15 -33 -33c0.666992 -10 4 -18 10 -24c8 -6 15.667 -9 23 -9c22 0 33 11 33 33zM204 520c-5.33301 22 -16.333 33 -33 33c-22 -4 -33 -15 -33 -33c0.666992 -10 4 -18 10 -24c8 -6 15.667 -9 23 -9c22 0 33 11 33 33
zM454 0v413h-41v-72c-44 52 -99 78 -165 78c-60 0 -110.667 -20.667 -152 -62c-40.667 -40.667 -61 -91 -61 -151s20.667 -110.667 62 -152c40.667 -40.667 91 -61 151 -61c66.667 0 121.667 26 165 78v-71h41zM421 206c0 -48 -17 -89 -51 -123
c-33.333 -33.333 -74 -50 -122 -50c-47.333 0 -88 17 -122 51s-51 74.667 -51 122c0 48 17 89 51 123c33.333 33.333 74 50 122 50c47.333 0 88 -17 122 -51s51 -74.667 51 -122z" />
    <glyph glyph-name="aring" unicode="&#xe5;" horiz-adv-x="510" 
d="M327 538c0 22 -8.33301 41.333 -25 58s-36 25 -58 25s-41.333 -8.33301 -58 -25s-25 -36 -25 -58s8.33301 -41.333 25 -58s36 -25 58 -25s41.333 8.33301 58 25s25 36 25 58zM454 0v413h-41v-72c-44 52 -99 78 -165 78c-60 0 -110.667 -20.667 -152 -62
c-40.667 -40.667 -61 -91 -61 -151s20.667 -110.667 62 -152c40.667 -40.667 91 -61 151 -61c66.667 0 121.667 26 165 78v-71h41zM306 539c0 -16 -6.33301 -30.333 -19 -43s-27 -19 -43 -19s-30.333 6.33301 -43 19s-19 27 -19 43s6.33301 30.333 19 43s27 19 43 19
s30.333 -6.33301 43 -19s19 -27 19 -43zM421 206c0 -48 -17 -89 -51 -123c-33.333 -33.333 -74 -50 -122 -50c-47.333 0 -88 17 -122 51s-51 74.667 -51 122c0 48 17 89 51 123c33.333 33.333 74 50 122 50c47.333 0 88 -17 122 -51s51 -74.667 51 -122z" />
    <glyph glyph-name="ae" unicode="&#xe6;" horiz-adv-x="878" 
d="M843 215c0 61.333 -20.3311 110.334 -60.998 147.001c-40.667 37.333 -91.334 56 -152.001 56c-77.333 0 -136 -28.667 -176 -86v81h-41v-72c-44 52 -99 78 -165 78c-60 0 -110.667 -20.667 -152 -62c-40.667 -40.667 -61 -91 -61 -151s20.667 -110.667 62 -152
c40.667 -40.667 91 -61 151 -61c66.667 0 121.667 26 165 78v-71h41v78c41.333 -57.333 100 -86 176 -86c26 0 49.333 3.33301 70 10c54 17.333 94 50.666 120 99.999l-37 17c-22.667 -36.667 -48.334 -61 -77.001 -73c-22.667 -9.33301 -48 -14 -76 -14
c-54.667 0 -97.667 16.667 -129 50c-30 32.667 -45 77 -45 133h387zM797.002 254.001l-334.999 0.000976562c26.667 82.667 82.667 124 168 124c49.333 0 89.666 -14.667 120.999 -44c24 -22.667 39.333 -49.334 46 -80.001zM421.003 206.002c0 -48 -17 -89 -51 -123
c-33.333 -33.333 -74 -50 -122 -50c-47.333 0 -88 17 -122 51s-51 74.667 -51 122c0 48 17 89 51 123c33.333 33.333 74 50 122 50c47.333 0 88 -17 122 -51s51 -74.667 51 -122z" />
    <glyph glyph-name="ccedilla" unicode="&#xe7;" horiz-adv-x="438" 
d="M387 29l0.000976562 53.999l-31 -25c-28.667 -16.667 -60.334 -25 -95.001 -25c-50 0 -91.333 16.333 -124 49s-49 74 -49 124c0 50.667 16.333 92.334 49 125.001c32 32.667 73.333 49 124 49c35.333 0 67.333 -8.33301 96 -25l15 -12l15 -13v54l-32 18
c-30 12 -61.333 18 -94 18c-61.333 0 -112.333 -20.333 -153 -61c-40.667 -40 -61 -91 -61 -153c0 -58 17.667 -106.667 53 -146s81.666 -62 138.999 -68l-13 -39l19 -15c6.66699 -6.66699 10 -13.667 10 -21l-2 -8l-3 -6c-5.33301 -5.33301 -10.666 -8 -15.999 -8
c-7.33301 0 -14 2 -20 6l-16 14l-13 -35c14 -16.667 31 -25 51 -25c15.333 0 29.333 5.33301 42 16c12 10.667 18 23.667 18 39c-4 26 -13 42.333 -27 49l13 34c26.667 0 52 6 76 18z" />
    <glyph glyph-name="egrave" unicode="&#xe8;" horiz-adv-x="490" 
d="M292 492l-134 134l-22 -24l131 -133zM461 215c0 60.667 -20.332 110.001 -60.999 148.001c-40 38 -90.667 57 -152 57c-62 0 -113.333 -20.333 -154 -61c-40 -40 -60 -91 -60 -153c0 -61.333 20.333 -112.333 61 -153c40 -40.667 91 -61 153 -61
c26 0 49.333 3.33301 70 10c54 17.333 94 50.666 120 99.999l-37 17c-22.667 -36.667 -48.334 -61 -77.001 -73c-22.667 -9.33301 -48 -14 -76 -14c-54.667 0 -97.667 16.667 -129 50c-30 32.667 -45 77 -45 133h387zM415.001 254.001h-335.001
c26.667 84 82.667 126 168 126c40.667 0 76.667 -11.333 108 -34c32.667 -23.333 52.334 -54 59.001 -92z" />
    <glyph glyph-name="eacute" unicode="&#xe9;" horiz-adv-x="490" 
d="M356 602l-22 24l-134 -134l24 -23zM461 215c0 60.667 -20.332 110.001 -60.999 148.001c-40 38 -90.667 57 -152 57c-62 0 -113.333 -20.333 -154 -61c-40 -40 -60 -91 -60 -153c0 -61.333 20.333 -112.333 61 -153c40 -40.667 91 -61 153 -61c26 0 49.333 3.33301 70 10
c54 17.333 94 50.666 120 99.999l-37 17c-22.667 -36.667 -48.334 -61 -77.001 -73c-22.667 -9.33301 -48 -14 -76 -14c-54.667 0 -97.667 16.667 -129 50c-30 32.667 -45 77 -45 133h387zM415.001 254.001h-335.001c26.667 84 82.667 126 168 126
c40.667 0 76.667 -11.333 108 -34c32.667 -23.333 52.334 -54 59.001 -92z" />
    <glyph glyph-name="ecircumflex" unicode="&#xea;" horiz-adv-x="490" 
d="M372 496l-120 120l-121 -120l21 -22l100 99l100 -99zM461 215c0 60.667 -20.332 110.001 -60.999 148.001c-40 38 -90.667 57 -152 57c-62 0 -113.333 -20.333 -154 -61c-40 -40 -60 -91 -60 -153c0 -61.333 20.333 -112.333 61 -153c40 -40.667 91 -61 153 -61
c26 0 49.333 3.33301 70 10c54 17.333 94 50.666 120 99.999l-37 17c-22.667 -36.667 -48.334 -61 -77.001 -73c-22.667 -9.33301 -48 -14 -76 -14c-54.667 0 -97.667 16.667 -129 50c-30 32.667 -45 77 -45 133h387zM415.001 254.001h-335.001
c26.667 84 82.667 126 168 126c40.667 0 76.667 -11.333 108 -34c32.667 -23.333 52.334 -54 59.001 -92z" />
    <glyph glyph-name="edieresis" unicode="&#xeb;" horiz-adv-x="490" 
d="M348 520c-5.33301 22 -16.333 33 -33 33c-22 -4 -33 -15 -33 -33c0.666992 -10 4 -18 10 -24c8 -6 15.667 -9 23 -9c22 0 33 11 33 33zM211 520c-5.33301 22 -16.333 33 -33 33c-22 -4 -33 -15 -33 -33c0.666992 -10 4 -18 10 -24c8 -6 15.667 -9 23 -9c22 0 33 11 33 33
zM461 215c0 60.667 -20.332 110.001 -60.999 148.001c-40 38 -90.667 57 -152 57c-62 0 -113.333 -20.333 -154 -61c-40 -40 -60 -91 -60 -153c0 -61.333 20.333 -112.333 61 -153c40 -40.667 91 -61 153 -61c26 0 49.333 3.33301 70 10c54 17.333 94 50.666 120 99.999
l-37 17c-22.667 -36.667 -48.334 -61 -77.001 -73c-22.667 -9.33301 -48 -14 -76 -14c-54.667 0 -97.667 16.667 -129 50c-30 32.667 -45 77 -45 133h387zM415.001 254.001h-335.001c26.667 84 82.667 126 168 126c40.667 0 76.667 -11.333 108 -34
c32.667 -23.333 52.334 -54 59.001 -92z" />
    <glyph glyph-name="igrave" unicode="&#xec;" horiz-adv-x="184" 
d="M118 492l-133 134l-23 -24l132 -133zM114 0v413h-41v-413h41z" />
    <glyph glyph-name="iacute" unicode="&#xed;" horiz-adv-x="184" 
d="M230 602l-23 24l-134 -134l25 -23zM114 0v413h-41v-413h41z" />
    <glyph glyph-name="icircumflex" unicode="&#xee;" horiz-adv-x="255" 
d="M250 496l-120 120l-122 -120l22 -22l100 99l100 -99zM148 0v413h-41v-413h41z" />
    <glyph glyph-name="idieresis" unicode="&#xef;" horiz-adv-x="184" 
d="M193 520c-5.33301 22 -16.333 33 -33 33c-22 -4 -33 -15 -33 -33c0.666992 -10 4 -18 10 -24c8 -6 15.667 -9 23 -9c22 0 33 11 33 33zM56 520c-5.33301 22 -16.333 33 -33 33c-22 -5.33301 -33 -16.333 -33 -33c4 -22 15 -33 33 -33c22 0 33 11 33 33zM114 0v413h-41
v-413h41z" />
    <glyph glyph-name="eth" unicode="&#xf0;" horiz-adv-x="498" 
d="M461 206c0 97.333 -12.332 175 -36.999 233c-21.333 48.667 -56.333 94.667 -105 138l91 57l-40 26l-88 -55c-34 24 -69 41 -105 51l-36 -35l51 -21l45 -23l-87 -55l40 -26l86 54c68 -49.333 110.333 -115.333 127 -198c-42.667 44.667 -94.334 67 -155.001 67
c-60 0 -110.667 -20.667 -152 -62c-40.667 -40.667 -61 -91 -61 -151s20.667 -110.667 62 -152c40.667 -40.667 91 -61 151 -61s110.667 20.667 152 62c40.667 40.667 61 91 61 151zM421.001 206c0 -48 -17 -89 -51 -123c-33.333 -33.333 -74 -50 -122 -50
c-47.333 0 -88 17 -122 51s-51 74.667 -51 122c0 48 17 89 51 123c33.333 33.333 74 50 122 50c47.333 0 88 -17 122 -51s51 -74.667 51 -122z" />
    <glyph glyph-name="ntilde" unicode="&#xf1;" horiz-adv-x="451" 
d="M385 535l-29 22c-14 -14 -23.667 -22 -29 -24l-12 -4h-23l-35 4l-29 12c-3.33301 2 -6.33301 3.66699 -9 5l-8 4c-18 6.66699 -35.333 10 -52 10c-44.667 0 -76.334 -17 -95.001 -51l28 -22c16.667 22 37.334 33 62.001 33c14.667 0 26.667 -2 36 -6l29 -12
c20 -12 45.667 -18 77 -18c20.667 0 38.667 4.66699 54 14l16 13zM385 0v251c0 52.667 -13.667 93.667 -41 123s-66.666 44 -117.999 44c-60.667 0 -100.334 -18.333 -119.001 -55v50h-41v-413h41v251c0 39.333 10.333 70.333 31 93c20 22.667 49.333 34 88 34
c78.667 0 118 -43.667 118 -131v-247h41z" />
    <glyph glyph-name="ograve" unicode="&#xf2;" horiz-adv-x="498" 
d="M291 492l-134 134l-22 -24l131 -133zM461 206c0 60 -20.668 110.666 -62.001 151.999s-91.666 62 -150.999 62c-60 0 -110.333 -21 -151 -63c-41.333 -41.333 -62 -91.666 -62 -150.999c0 -60 20.667 -110.667 62 -152c40.667 -40.667 91 -61 151 -61
s110.667 20.667 152 62c40.667 40.667 61 91 61 151zM420.999 205.999c0 -48 -17 -89.001 -51 -123.001c-33.333 -33.333 -74 -50 -122 -50c-47.333 0 -88 17 -122 51s-51 74.667 -51 122c0 46.667 17.333 87.334 52 122.001c34 34.667 74.333 52 121 52
c48.667 0 89.667 -17 123 -51c33.333 -33.333 50 -74.333 50 -123z" />
    <glyph glyph-name="oacute" unicode="&#xf3;" horiz-adv-x="498" 
d="M360 602l-22 24l-134 -134l25 -23zM461 206c0 60 -20.668 110.666 -62.001 151.999s-91.666 62 -150.999 62c-60 0 -110.333 -21 -151 -63c-41.333 -41.333 -62 -91.666 -62 -150.999c0 -60 20.667 -110.667 62 -152c40.667 -40.667 91 -61 151 -61
s110.667 20.667 152 62c40.667 40.667 61 91 61 151zM420.999 205.999c0 -48 -17 -89.001 -51 -123.001c-33.333 -33.333 -74 -50 -122 -50c-47.333 0 -88 17 -122 51s-51 74.667 -51 122c0 46.667 17.333 87.334 52 122.001c34 34.667 74.333 52 121 52
c48.667 0 89.667 -17 123 -51c33.333 -33.333 50 -74.333 50 -123z" />
    <glyph glyph-name="ocircumflex" unicode="&#xf4;" horiz-adv-x="498" 
d="M365 496l-120 120l-122 -120l22 -22l100 99l100 -99zM461 206c0 60 -20.668 110.666 -62.001 151.999s-91.666 62 -150.999 62c-60 0 -110.333 -21 -151 -63c-41.333 -41.333 -62 -91.666 -62 -150.999c0 -60 20.667 -110.667 62 -152c40.667 -40.667 91 -61 151 -61
s110.667 20.667 152 62c40.667 40.667 61 91 61 151zM420.999 205.999c0 -48 -17 -89.001 -51 -123.001c-33.333 -33.333 -74 -50 -122 -50c-47.333 0 -88 17 -122 51s-51 74.667 -51 122c0 46.667 17.333 87.334 52 122.001c34 34.667 74.333 52 121 52
c48.667 0 89.667 -17 123 -51c33.333 -33.333 50 -74.333 50 -123z" />
    <glyph glyph-name="otilde" unicode="&#xf5;" horiz-adv-x="498" 
d="M403 535l-29 22c-14 -14 -23.667 -22 -29 -24l-12 -4h-23l-35 4l-29 12c-3.33301 2 -6.33301 3.66699 -9 5l-8 4c-18 6.66699 -35.333 10 -52 10c-44.667 0 -76.334 -17 -95.001 -51l28 -22c16.667 22 37.334 33 62.001 33c14.667 0 26.667 -2 36 -6l29 -12
c20 -12 45.667 -18 77 -18c20.667 0 38.667 4.66699 54 14l16 13zM461 206c0 60 -20.668 110.666 -62.001 151.999s-91.666 62 -150.999 62c-60 0 -110.333 -21 -151 -63c-41.333 -41.333 -62 -91.666 -62 -150.999c0 -60 20.667 -110.667 62 -152
c40.667 -40.667 91 -61 151 -61s110.667 20.667 152 62c40.667 40.667 61 91 61 151zM420.999 205.999c0 -48 -17 -89.001 -51 -123.001c-33.333 -33.333 -74 -50 -122 -50c-47.333 0 -88 17 -122 51s-51 74.667 -51 122c0 46.667 17.333 87.334 52 122.001
c34 34.667 74.333 52 121 52c48.667 0 89.667 -17 123 -51c33.333 -33.333 50 -74.333 50 -123z" />
    <glyph glyph-name="odieresis" unicode="&#xf6;" horiz-adv-x="498" 
d="M345 520c-5.33301 22 -16.333 33 -33 33c-22 -4 -33 -15 -33 -33c0.666992 -10 4 -18 10 -24c8 -6 15.667 -9 23 -9c22 0 33 11 33 33zM208 520c-5.33301 22 -16.333 33 -33 33c-22 -4 -33 -15 -33 -33c0.666992 -10 4 -18 10 -24c8 -6 15.667 -9 23 -9c22 0 33 11 33 33
zM461 206c0 60 -20.668 110.666 -62.001 151.999s-91.666 62 -150.999 62c-60 0 -110.333 -21 -151 -63c-41.333 -41.333 -62 -91.666 -62 -150.999c0 -60 20.667 -110.667 62 -152c40.667 -40.667 91 -61 151 -61s110.667 20.667 152 62c40.667 40.667 61 91 61 151z
M420.999 205.999c0 -48 -17 -89.001 -51 -123.001c-33.333 -33.333 -74 -50 -122 -50c-47.333 0 -88 17 -122 51s-51 74.667 -51 122c0 46.667 17.333 87.334 52 122.001c34 34.667 74.333 52 121 52c48.667 0 89.667 -17 123 -51c33.333 -33.333 50 -74.333 50 -123z" />
    <glyph glyph-name="divide" unicode="&#xf7;" horiz-adv-x="362" 
d="M218 381c-5.33301 22 -16.333 33 -33 33c-22 -4 -33 -15 -33 -33c0.666992 -10 4 -18 10 -24c8 -6 15.667 -9 23 -9c22 0 33 11 33 33zM314 239v51h-257v-51h257zM218 146c-5.33301 22 -16.333 33 -33 33c-22 -4 -33 -15 -33 -33c0.666992 -10 4 -18 10 -24
c8 -6 15.667 -9 23 -9c22 0 33 11 33 33z" />
    <glyph glyph-name="oslash" unicode="&#xf8;" horiz-adv-x="498" 
d="M461 206c0 62.667 -23.334 115.333 -70.001 158l41 59l-36 24l-40 -57c-33.333 19.333 -69.333 29 -108 29c-60 0 -110.667 -20.667 -152 -62c-40.667 -40.667 -61 -91 -61 -151c0 -67.333 25.667 -122 77 -164l-36 -52l34 -25l37 53
c30.667 -16.667 64.334 -25 101.001 -25c60 0 110.667 20.667 152 62c40.667 40.667 61 91 61 151zM420.999 205.999c0 -48 -17 -89 -51 -123c-33.333 -33.333 -74 -50 -122 -50l-40 4l-19 6l-18 8l197 280c35.333 -33.333 53 -75 53 -125zM332.999 356.999
l-197.999 -282.001c-40 34.667 -60 78.334 -60 131.001c0 48 17 89 51 123c33.333 33.333 74 50 122 50c29.333 0 57.666 -7.33301 84.999 -22z" />
    <glyph glyph-name="ugrave" unicode="&#xf9;" horiz-adv-x="429" 
d="M244 492l-134 134l-22 -24l131 -133zM369 155v258h-40v-258c0 -82 -38.333 -123 -115 -123c-39.333 0 -68 10.667 -86 32c-17.333 21.333 -26 51.666 -26 90.999v258h-41v-258c0 -51.333 13.333 -91.333 40 -120s64.334 -43 113.001 -43
c49.333 0 87.666 14.667 114.999 44c26.667 28.667 40 68.334 40 119.001z" />
    <glyph glyph-name="uacute" unicode="&#xfa;" horiz-adv-x="429" 
d="M351 602l-22 24l-134 -134l24 -23zM369 155v258h-40v-258c0 -82 -38.333 -123 -115 -123c-39.333 0 -68 10.667 -86 32c-17.333 21.333 -26 51.666 -26 90.999v258h-41v-258c0 -51.333 13.333 -91.333 40 -120s64.334 -43 113.001 -43c49.333 0 87.666 14.667 114.999 44
c26.667 28.667 40 68.334 40 119.001z" />
    <glyph glyph-name="ucircumflex" unicode="&#xfb;" horiz-adv-x="429" 
d="M336 496l-121 120l-121 -120l21 -22l100 99l100 -99zM369 155v258h-40v-258c0 -82 -38.333 -123 -115 -123c-39.333 0 -68 10.667 -86 32c-17.333 21.333 -26 51.666 -26 90.999v258h-41v-258c0 -51.333 13.333 -91.333 40 -120s64.334 -43 113.001 -43
c49.333 0 87.666 14.667 114.999 44c26.667 28.667 40 68.334 40 119.001z" />
    <glyph glyph-name="udieresis" unicode="&#xfc;" horiz-adv-x="429" 
d="M315 520c-5.33301 22 -16.333 33 -33 33c-22 -4 -33 -15 -33 -33c0.666992 -10 4 -18 10 -24c8 -6 15.667 -9 23 -9c22 0 33 11 33 33zM178 520c-5.33301 22 -16.333 33 -33 33c-22 -4 -33 -15 -33 -33c0.666992 -10 4 -18 10 -24c8 -6 15.667 -9 23 -9c22 0 33 11 33 33
zM369 155v258h-40v-258c0 -82 -38.333 -123 -115 -123c-39.333 0 -68 10.667 -86 32c-17.333 21.333 -26 51.666 -26 90.999v258h-41v-258c0 -51.333 13.333 -91.333 40 -120s64.334 -43 113.001 -43c49.333 0 87.666 14.667 114.999 44c26.667 28.667 40 68.334 40 119.001
z" />
    <glyph glyph-name="yacute" unicode="&#xfd;" horiz-adv-x="822" 
d="M785 357c0 123.333 -44.334 219.999 -133.001 289.999l42 60l-37 23l-41 -58c-58.667 34.667 -125 52 -199 52c-108 0 -196.333 -34.333 -265 -103c-68 -68 -102 -156 -102 -264c0 -58 11.667 -113 35 -165c24 -53.333 59 -96.666 105 -129.999l-40 -58l36 -24l40 58
c58.667 -32 122.334 -48 191.001 -48c108 0 196.333 34.333 265 103c68.667 68 103 156 103 264zM592.999 637.999l-379.001 -541.999c-40 29.333 -70.333 66 -91 110c-21.333 44.667 -32 95 -32 151c0 95.333 30.667 173.666 92 234.999c60 61.333 138 92 234 92
c62.667 0 121.334 -15.333 176.001 -46zM743.998 373v-15.999c0 -96.667 -30.333 -175.334 -91 -236.001c-61.333 -60 -140 -90 -236 -90c-60 0 -115.667 13.667 -167 41l378 541c46 -37.333 78 -82 96 -134c-14.667 12.667 -31.667 19 -51 19
c-22 0 -41.333 -8.33301 -58 -25s-25 -36 -25 -58s8.33301 -41.333 25 -58s36 -25 58 -25s41.333 8.33301 58 25c4.66699 4.66699 9 10 13 16zM734.998 416.001c0 -16 -6.33301 -30.333 -19 -43s-27 -19 -43 -19s-30.333 6.33301 -43 19s-19 27 -19 43s6.33301 30.333 19 43
s27 19 43 19s30.333 -6.33301 43 -19s19 -27 19 -43zM395.998 415.001c0 22 -8.33301 41.333 -25 58s-36 25 -58 25s-41.333 -8.33301 -58 -25s-25 -36 -25 -58s8.33301 -41.333 25 -58s36 -25 58 -25s41.333 8.33301 58 25s25 36 25 58zM374.998 416.001
c0 -16 -6.33301 -30.333 -19 -43s-27 -19 -43 -19s-30.333 6.33301 -43 19s-19 27 -19 43s6.33301 30.333 19 43s27 19 43 19s30.333 -6.33301 43 -19s19 -27 19 -43zM300.998 399.001c0 -6 2.16699 -11.167 6.5 -15.5s9.5 -6.5 15.5 -6.5s11.167 2.16699 15.5 6.5
s6.5 9.5 6.5 15.5s-2.16699 11.167 -6.5 15.5s-9.5 6.5 -15.5 6.5s-11.167 -2.16699 -15.5 -6.5s-6.5 -9.5 -6.5 -15.5zM661.998 396.001c0 -6 2.16699 -11.167 6.5 -15.5s9.5 -6.5 15.5 -6.5s11.167 2.16699 15.5 6.5s6.5 9.5 6.5 15.5s-2.16699 11.167 -6.5 15.5
s-9.5 6.5 -15.5 6.5s-11.167 -2.16699 -15.5 -6.5s-6.5 -9.5 -6.5 -15.5zM615.998 151.001l-18 22c-24.667 -24.667 -53 -37 -85 -37c-34.667 0 -65 13 -91 39l-21 -24c27.333 -29.333 63.333 -44 108 -44c46 0 81.667 14.667 107 44z" />
    <glyph glyph-name="thorn" unicode="&#xfe;" horiz-adv-x="513" 
d="M488 206c0 60 -20.667 110.667 -62 152c-40.667 40.667 -91 61 -151 61c-70.667 0 -127.334 -28 -170.001 -84v405h-41v-934h41v271c44.667 -56 101.334 -84 170.001 -84c60 0 110.667 20.667 152 62c40.667 40.667 61 91 61 151zM448 206c0 -48 -17 -89 -51 -123
c-33.333 -33.333 -74 -50 -122 -50c-47.333 0 -88 17 -122 51s-51 74.667 -51 122c0 48 17 89 51 123c33.333 33.333 74 50 122 50c47.333 0 88 -17 122 -51s51 -74.667 51 -122z" />
    <glyph glyph-name="ydieresis" unicode="&#xff;" horiz-adv-x="445" 
d="M331 520c-5.33301 22 -16.333 33 -33 33c-22 -4 -33 -15 -33 -33c0.666992 -10 4 -18 10 -24c8 -6 15.667 -9 23 -9c22 0 33 11 33 33zM194 520c-5.33301 22 -16.333 33 -33 33c-22 -4 -33 -15 -33 -33c0.666992 -10 4 -18 10 -24c8 -6 15.667 -9 23 -9c22 0 33 11 33 33
zM423 413h-45l-152 -326l-154 326h-44l174 -375l-107 -232h46z" />
    <glyph glyph-name="OE" unicode="&#x152;" horiz-adv-x="1148" 
d="M1087 0l-0.000976562 41.001h-302v328h302v44h-302v260h302v41h-343v-179c-31.333 61.333 -76.666 108.666 -135.999 141.999c-56.667 31.333 -120.334 47 -191.001 47c-108 0 -196.333 -34.333 -265 -103c-68 -68 -102 -156 -102 -264s34.333 -196.333 103 -265
c68 -68 156 -102 264 -102c72.667 0 136.334 15.667 191.001 47c58 32.667 103.333 80 136 142v-179h343zM743.999 357.001c0 -96.667 -30.334 -175.332 -91.001 -235.999c-61.333 -60 -140 -90 -236 -90c-95.333 0 -173.666 30.667 -234.999 92
c-60.667 60.667 -91 138.667 -91 234s30.667 173.666 92 234.999s139.333 92 234 92c96 0 174.667 -30.667 236 -92c60.667 -60.667 91 -139 91 -235z" />
    <glyph glyph-name="oe" unicode="&#x153;" horiz-adv-x="883" 
d="M849 215c0 61.333 -20.3301 110.333 -60.9971 147c-40.667 37.333 -91.334 56 -152.001 56c-43.333 0 -82.666 -10.667 -117.999 -32s-61.333 -51 -78 -89c-18.667 36.667 -45.334 66.334 -80.001 89.001c-34 22 -71.333 33 -112 33c-60 0 -110.667 -20.667 -152 -62
c-40.667 -40.667 -61 -91 -61 -151s20.667 -110.667 62 -152c40.667 -40.667 91 -61 151 -61c41.333 0 79.666 11 114.999 33c34 21.333 59.667 51 77 89c18 -38.667 44.333 -69 79 -91c35.333 -21.333 74.333 -32 117 -32c26 0 49.333 3.33301 70 10
c54 17.333 94 50.666 120 99.999l-37 17c-22.667 -36.667 -48.334 -61 -77.001 -73c-22.667 -9.33301 -48 -14 -76 -14c-54.667 0 -97.667 16.667 -129 50c-30 32.667 -45 77 -45 133h387zM803.003 254l-334.999 0.000976562c26.667 82.667 82.667 124 168 124
c49.333 0 89.666 -14.667 120.999 -44c24 -22.667 39.333 -49.334 46 -80.001zM421.004 206.001c0 -48 -17 -89 -51 -123c-33.333 -33.333 -74 -50 -122 -50c-47.333 0 -88 17 -122 51s-51 74.667 -51 122c0 48 17 89 51 123c33.333 33.333 74 50 122 50
c47.333 0 88 -17 122 -51s51 -74.667 51 -122z" />
    <glyph glyph-name="Scaron" unicode="&#x160;" horiz-adv-x="498" 
d="M384 859l-21 22l-100 -99l-100 99l-21 -22l121 -120zM458 185c0 56.667 -19.3311 103.999 -57.998 141.999c-14 14 -32.333 27.833 -55 41.5s-49.667 27.5 -81 41.5c-50 22.667 -83.333 40.667 -100 54c-29.333 25.333 -44 55 -44 89c0 38 14 68.667 42 92
c26 22 58.667 33 98 33c37.333 0 67.666 -7.33301 90.999 -22c18.667 -10.667 34.667 -27 48 -49l39 17c-34.667 62.667 -94 94 -178 94c-50.667 0 -93.334 -15.333 -128.001 -46c-35.333 -30 -53 -69.667 -53 -119s17.333 -89 52 -119
c20.667 -18.667 59.334 -40.667 116.001 -66c30 -13.333 54.667 -25.333 74 -36s33.666 -20.334 42.999 -29.001c35.333 -31.333 53 -70.666 53 -117.999c0 -50 -15 -88 -45 -114c-29.333 -25.333 -69.666 -38 -120.999 -38c-90 0 -146.667 42.667 -170 128l-41 -14
c31.333 -103.333 101.666 -155 210.999 -155c35.333 0 66 4.66699 92 14c76.667 28.667 115 88.334 115 179.001z" />
    <glyph glyph-name="scaron" unicode="&#x161;" horiz-adv-x="331" 
d="M291 559l-21 22l-100 -99l-100 99l-21 -22l121 -120zM308 113c0 37.333 -14.3311 66.999 -42.998 88.999c-7.33301 5.33301 -18.333 11.5 -33 18.5s-33.334 14.5 -56.001 22.5c-26 8.66699 -45 17.667 -57 27c-14.667 12 -22 27.333 -22 46c0 42 24 63 72 63
c35.333 0 64.333 -11.333 87 -34l30 26c-32 32 -71 48 -117 48c-33.333 0 -60.333 -10.333 -81 -31c-21.333 -20 -32 -44 -32 -72c0 -32.667 10.667 -57.667 32 -75c14.667 -12 38.667 -24 72 -36c18 -6.66699 33.167 -12.5 45.5 -17.5s21.833 -9.5 28.5 -13.5
c22 -17.333 33 -37.666 33 -60.999c0 -53.333 -31.333 -80 -94 -80c-28.667 0 -51.334 6.33301 -68.001 19c-16 11.333 -29.667 27.333 -41 48l-35 -21c32 -58 80 -87 144 -87c37.333 0 69.333 11.333 96 34c26 22 39 51 39 87z" />
    <glyph glyph-name="Ydieresis" unicode="&#x178;" horiz-adv-x="511" 
d="M354 796c-5.33301 22 -16.333 33 -33 33c-22 -4 -33 -15 -33 -33c0.666992 -10 4 -18 10 -24c8 -6 15.667 -9 23 -9c22 0 33 11 33 33zM217 796c-5.33301 22 -16.333 33 -33 33c-22 -4 -33 -15 -33 -33c0.666992 -10 4 -18 10 -24c8 -6 15.667 -9 23 -9c22 0 33 11 33 33
zM481 714h-47l-178 -309l-176 309h-47l203 -357v-357h41v357z" />
    <glyph glyph-name="florin" unicode="&#x192;" horiz-adv-x="594" 
d="M176 530v-530h241v41h-201v673h-40v-74l-3 3c-16 16.667 -35.333 25 -58 25c-22 0 -41.333 -8.33301 -58 -25s-25 -36 -25 -58s8.33301 -41.333 25 -58s36 -25 58 -25c22.667 0 42 8.33301 58 25zM176 597v-22c-2 -11.333 -8 -22 -18 -32
c-12.667 -12.667 -27 -19 -43 -19s-30.333 6.33301 -43 19s-19 27 -19 43s6.33301 30.333 19 43s27 19 43 19s30.333 -6.33301 43 -19c10 -10 16 -20.667 18 -32zM103 569c0 -6 2.16699 -11.167 6.5 -15.5s9.5 -6.5 15.5 -6.5s11.167 2.16699 15.5 6.5s6.5 9.5 6.5 15.5
s-2.16699 11.167 -6.5 15.5s-9.5 6.5 -15.5 6.5s-11.167 -2.16699 -15.5 -6.5s-6.5 -9.5 -6.5 -15.5zM558 585c0 22 -8.33301 41.333 -25 58s-36 25 -58 25s-41.333 -8.33301 -58 -25s-25 -36 -25 -58s8.33301 -41.333 25 -58s36 -25 58 -25s41.333 8.33301 58 25
s25 36 25 58zM537 586c0 -16 -6.33301 -30.333 -19 -43s-27 -19 -43 -19s-30.333 6.33301 -43 19s-19 27 -19 43s6.33301 30.333 19 43s27 19 43 19s30.333 -6.33301 43 -19s19 -27 19 -43zM464 566c0 -6 2.16699 -11.167 6.5 -15.5s9.5 -6.5 15.5 -6.5
s11.167 2.16699 15.5 6.5s6.5 9.5 6.5 15.5s-2.16699 11.167 -6.5 15.5s-9.5 6.5 -15.5 6.5s-11.167 -2.16699 -15.5 -6.5s-6.5 -9.5 -6.5 -15.5zM356 -149l-18 22c-24.667 -24.667 -53 -37 -85 -37c-34.667 0 -65 13 -91 39l-21 -24c27.333 -29.333 63.333 -44 108 -44
c46 0 81.667 14.667 107 44z" />
    <glyph glyph-name="circumflex" unicode="&#x2c6;" horiz-adv-x="378" 
d="M312 496l-120 120l-120 -120l20 -22l100 99l100 -99z" />
    <glyph glyph-name="tilde" unicode="&#x2dc;" horiz-adv-x="423" 
d="M377 535l-29 22c-14 -14 -23.667 -22 -29 -24l-12 -4h-23l-35 4l-29 12c-3.33301 2 -6.33301 3.66699 -9 5l-8 4c-18 6.66699 -35.333 10 -52 10c-44.667 0 -76.334 -17 -95.001 -51l28 -22c16.667 22 37.334 33 62.001 33c14.667 0 26.667 -2 36 -6l29 -12
c20 -12 45.667 -18 77 -18c20.667 0 38.667 4.66699 54 14l16 13z" />
    <glyph glyph-name="endash" unicode="&#x2013;" horiz-adv-x="372" 
d="M333 244v41h-291v-41h291z" />
    <glyph glyph-name="emdash" unicode="&#x2014;" horiz-adv-x="617" 
d="M572 244v41h-520v-41h520z" />
    <glyph glyph-name="quoteleft" unicode="&#x2018;" horiz-adv-x="163" 
d="M110 564v72h-33v45c0 18 6 33.667 18 47h-20c-12 -9.33301 -18 -25 -18 -47v-117h53z" />
    <glyph glyph-name="quoteright" unicode="&#x2019;" horiz-adv-x="158" 
d="M116 619v117h-53v-72h33v-45c0 -18.667 -6 -34.334 -18 -47.001h20c12 14.667 18 30.334 18 47.001z" />
    <glyph glyph-name="quotesinglbase" unicode="&#x201a;" horiz-adv-x="158" 
d="M116 15v117.001h-53v-72h33v-45c0 -18.667 -6 -34.334 -18 -47.001h20c6.66699 4.66699 11 11.667 13 21c3.33301 8 5 16.667 5 26z" />
    <glyph glyph-name="quotedblleft" unicode="&#x201c;" horiz-adv-x="286" 
d="M229 564v72h-33v45c0 18 6 33.667 18 47h-20c-12 -9.33301 -18 -25 -18 -47v-117h53zM114 564v72h-33v45c0 18 6 33.667 18 47h-20c-12 -9.33301 -18 -25 -18 -47v-117h53z" />
    <glyph glyph-name="quotedblright" unicode="&#x201d;" horiz-adv-x="301" 
d="M234 619v117h-53v-72h33v-45c0 -18.667 -6 -34.334 -18 -47.001h20c12 14.667 18 30.334 18 47.001zM119 619v117h-53v-72h33v-45c0 -18.667 -6 -34.334 -18 -47.001h20c12 14.667 18 30.334 18 47.001z" />
    <glyph glyph-name="quotedblbase" unicode="&#x201e;" horiz-adv-x="301" 
d="M234 15v117.001h-53v-72h33v-45c0 -18.667 -6 -34.334 -18 -47.001h20c6.66699 4.66699 11 11.667 13 21c3.33301 8 5 16.667 5 26zM119 15.001v117.001h-53v-72h33v-45c0 -18.667 -6 -34.334 -18 -47.001h20c6.66699 4.66699 11 11.667 13 21c3.33301 8 5 16.667 5 26z
" />
    <glyph glyph-name="dagger" unicode="&#x2020;" horiz-adv-x="245" 
d="M205 547v27h-67v162h-28v-162h-67v-27h67v-393h28v393h67z" />
    <glyph glyph-name="daggerdbl" unicode="&#x2021;" horiz-adv-x="245" 
d="M211 365v28h-67v149h67v27h-67v167h-28v-167h-67v-27h67v-149h-67v-28h67v-298h28v298h67z" />
    <glyph glyph-name="bullet" unicode="&#x2022;" horiz-adv-x="294" 
d="M214 328c0 22 -8 41.667 -24 59c-16 16 -35.667 24 -59 24c-22.667 0 -42.334 -8 -59.001 -24c-16 -17.333 -24 -37 -24 -59c0 -23.333 8 -43 24 -59c16.667 -16 36.334 -24 59.001 -24c23.333 0 43 8 59 24s24 35.667 24 59z" />
    <glyph glyph-name="ellipsis" unicode="&#x2026;" horiz-adv-x="418" 
d="M62 27c-5.33301 22 -16.333 33 -33 33c-22 -4 -33 -15 -33 -33c0.666992 -10 4 -18 10 -24c8 -6 15.667 -9 23 -9c22 0 33 11 33 33zM205 27c-5.33301 22 -16.333 33 -33 33c-22 -4 -33 -15 -33 -33c0.666992 -10 4 -18 10 -24c8 -6 15.667 -9 23 -9c22 0 33 11 33 33z
M348 27c-5.33301 22 -16.333 33 -33 33c-22 -4 -33 -15 -33 -33c0.666992 -10 4 -18 10 -24c8 -6 15.667 -9 23 -9c22 0 33 11 33 33z" />
    <glyph glyph-name="perthousand" unicode="&#x2030;" horiz-adv-x="827" 
d="M798 115c0 34 -12.334 63.332 -37.001 87.999s-54 37 -88 37s-63.333 -12.333 -88 -37c-24 -25.333 -36 -54.666 -36 -87.999c0 -32 12.667 -60.667 38 -86c24.667 -24.667 53.334 -37 86.001 -37c34 0 63.667 12 89 36c24 22.667 36 51.667 36 87zM297.999 571.999
c0 34 -12.334 63.332 -37.001 87.999s-54 37 -88 37s-63.333 -12.333 -88 -37c-24 -25.333 -36 -54.666 -36 -87.999c0 -32 12.667 -60.667 38 -86c24.667 -24.667 53.334 -37 86.001 -37c34 0 63.667 12 89 36c24 22.667 36 51.667 36 87zM596.998 713.998h-50l-526 -714
h50zM497.998 114.998c0 34 -12.334 63.332 -37.001 87.999s-54 37 -88 37s-63.333 -12.333 -88 -37c-24 -25.333 -36 -54.666 -36 -87.999c0 -32 12.667 -60.667 38 -86c24.667 -24.667 53.334 -37 86.001 -37c34 0 63.667 12 89 36c24 22.667 36 51.667 36 87z
M756.997 114.997c0 -21.333 -8.66895 -40.667 -26.002 -58c-17.333 -16 -36.666 -24 -57.999 -24c-22 0 -41.667 7.66699 -59 23c-16 18 -24 37.667 -24 59c0 22.667 8.33301 42.334 25 59.001c16 16.667 35.333 25 58 25s42.334 -8.33301 59.001 -25s25 -36.334 25 -59.001
zM256.995 571.996c0 -22 -8.33398 -41.333 -25.001 -58c-19.333 -16 -39 -24 -59 -24c-22 0 -41.333 8.33301 -58 25c-16.667 16 -25 35 -25 57c0 22.667 8.33301 42.334 25 59.001c16 16.667 35.333 25 58 25s42.334 -8.33301 59.001 -25s25 -36.334 25 -59.001z
M456.994 114.996c0 -21.333 -8.66895 -40.667 -26.002 -58c-17.333 -16 -36.666 -24 -57.999 -24c-22 0 -41.667 7.66699 -59 23c-16 18 -24 37.667 -24 59c0 22.667 8.33301 42.334 25 59.001c16 16.667 35.333 25 58 25s42.334 -8.33301 59.001 -25s25 -36.334 25 -59.001
z" />
    <glyph glyph-name="guilsinglleft" unicode="&#x2039;" horiz-adv-x="281" 
d="M235 423l-21 21l-188 -189l184 -185l21 21l-165 164z" />
    <glyph glyph-name="guilsinglright" unicode="&#x203a;" horiz-adv-x="281" 
d="M254 255l-189 189l-20 -21l168 -168l-164 -164l20 -21z" />
    <glyph glyph-name="currency" unicode="&#x20ac;" horiz-adv-x="702" 
d="M665 273l-0.00390625 40.002h-562c-0.666992 7.33301 -1.16699 14.666 -1.5 21.999s-0.5 14.666 -0.5 21.999c0 6.66699 0.166992 13.167 0.5 19.5s0.833008 12.5 1.5 18.5h562v41h-556c12 60.667 40 112.667 84 156c60 61.333 138 92 234 92
c55.333 0 108.333 -10.333 159 -31c33.333 -14 64 -32.667 92 -56v51c-27.333 21.333 -55.666 37.666 -84.999 48.999c-49.333 18 -104.666 27 -165.999 27c-108 0 -196.333 -34.333 -265 -103c-50.667 -50.667 -82.334 -112.334 -95.001 -185.001h-66v-41h60
c-0.666992 -6 -1 -12.333 -1 -19v-19c0 -7.33301 0.166992 -14.666 0.5 -21.999s0.833008 -14.666 1.5 -21.999h-61v-40h67c12.667 -70 44.334 -130.333 95.001 -181c68 -68 156 -102 264 -102c9.33301 0 18.333 0.166992 27 0.5s16.667 0.833008 24 1.5
c64 6 114.667 22.667 152 50l48 35v47c-38.667 -28 -70.667 -48.333 -96 -61c-44 -21.333 -95.667 -32 -155 -32c-95.333 0 -173.666 30.667 -234.999 92c-41.333 41.333 -68.666 91.333 -81.999 150h555z" />
    <glyph glyph-name="trademark" unicode="&#x2122;" horiz-adv-x="337" 
d="M315 547l-33 161l-52 -148l-51 148l-36 -161h7l30 138l50 -146l50 146l28 -138h7zM148 700v6h-109v-6h51v-154h7v154h51z" />
    <glyph glyph-name="minus" unicode="&#xe000;" horiz-adv-x="318" 
d="M268 244v41h-211v-41h211z" />
    <glyph glyph-name="notequal" unicode="&#xe001;" horiz-adv-x="612" 
d="M336 0v714h-135l-27 -41h121v-673h41zM219 515c0 22 -8.33301 41.333 -25 58s-36 25 -58 25s-41.333 -8.33301 -58 -25s-25 -36 -25 -58s8.33301 -41.333 25 -58s36 -25 58 -25s41.333 8.33301 58 25s25 36 25 58zM198 516c0 -16 -6.33301 -30.333 -19 -43
s-27 -19 -43 -19s-30.333 6.33301 -43 19s-19 27 -19 43s6.33301 30.333 19 43s27 19 43 19s30.333 -6.33301 43 -19s19 -27 19 -43zM579 515c0 22 -8.33301 41.333 -25 58s-36 25 -58 25s-41.333 -8.33301 -58 -25s-25 -36 -25 -58s8.33301 -41.333 25 -58s36 -25 58 -25
s41.333 8.33301 58 25s25 36 25 58zM558 516c0 -16 -6.33301 -30.333 -19 -43s-27 -19 -43 -19s-30.333 6.33301 -43 19s-19 27 -19 43s6.33301 30.333 19 43s27 19 43 19s30.333 -6.33301 43 -19s19 -27 19 -43zM124 499c0 -6 2.16699 -11.167 6.5 -15.5
s9.5 -6.5 15.5 -6.5s11.167 2.16699 15.5 6.5s6.5 9.5 6.5 15.5s-2.16699 11.167 -6.5 15.5s-9.5 6.5 -15.5 6.5s-11.167 -2.16699 -15.5 -6.5s-6.5 -9.5 -6.5 -15.5zM485 496c0 -6 2.16699 -11.167 6.5 -15.5s9.5 -6.5 15.5 -6.5s11.167 2.16699 15.5 6.5s6.5 9.5 6.5 15.5
s-2.16699 11.167 -6.5 15.5s-9.5 6.5 -15.5 6.5s-11.167 -2.16699 -15.5 -6.5s-6.5 -9.5 -6.5 -15.5zM439 -71l-21 22l-100 -99l-100 99l-21 -22l121 -120z" />
    <glyph glyph-name="partialdiff" unicode="&#xe002;" 
d="M225 419v322h-60l-12 -19h54v-303h18zM335 354v26h-254v-26h254zM301 238c0 25.333 -9.33105 46 -27.998 62c-19.333 16 -41.333 24 -66 24c-22.667 0 -43.334 -7.33301 -62.001 -22c-18 -13.333 -28.667 -31.333 -32 -54h20c12.667 38.667 37.334 58 74.001 58
c19.333 0 36.666 -6.66699 51.999 -20c15.333 -12 23 -28 23 -48c0 -18 -6.33301 -36.667 -19 -56l-157 -182h194v18h-154l93 105c23.333 26.667 37.666 44 42.999 52c12.667 21.333 19 42.333 19 63z" />
    <glyph glyph-name="summation" unicode="&#xe003;" 
d="M219 419v322h-60l-12 -19h54v-303h18zM333 354v26h-254v-26h254zM288 60v18h-28v247l-184 -265h165v-61h19v61h28zM241 78h-132l132 187v-187z" />
    <glyph glyph-name="product" unicode="&#xe004;" 
d="M219 419v322h-60l-12 -19h54v-303h18z" />
    <glyph glyph-name="pi" unicode="&#xe005;" 
d="M291 507c0 45.333 -21 73.999 -63 85.999c40 10.667 60 35.334 60 74.001c0 24 -8.33301 44 -25 60c-16.667 14.667 -37 22 -61 22c-23.333 0 -43 -7 -59 -21c-16 -12.667 -25 -31 -27 -55h21c6 38 27.667 57 65 57c18.667 0 34 -6 46 -18c12 -11.333 18 -26.333 18 -45
l-4 -25l-12 -19c-11.333 -11.333 -26.666 -17 -45.999 -17h-19v-26h19l21 -4c6 -2 12.667 -6 20 -12c17.333 -13.333 26 -32.333 26 -57c0 -20 -7 -37 -21 -51c-14.667 -13.333 -31.667 -20 -51 -20c-16.667 0 -31.334 5.66699 -44.001 17c-12 11.333 -20 23 -24 35h-20
c12.667 -46.667 42 -70 88 -70c27.333 0 49.333 8.33301 66 25c17.333 16 26 37.333 26 64zM327 353.999v26h-255v-26h255zM292 59.999v18h-28v247l-184 -265h165v-61h19v61h28zM245 77.999h-132l132 187v-187z" />
    <glyph glyph-name="integral" unicode="&#xe006;" 
d="M291 507c0 45.333 -21 73.999 -63 85.999c40 10.667 60 35.334 60 74.001c0 24 -8.33301 44 -25 60c-16.667 14.667 -37 22 -61 22c-23.333 0 -43 -7 -59 -21c-16 -12.667 -25 -31 -27 -55h21c6 38 27.667 57 65 57c18.667 0 34 -6 46 -18c12 -11.333 18 -26.333 18 -45
l-4 -25l-12 -19c-11.333 -11.333 -26.666 -17 -45.999 -17h-19v-26h19l21 -4c6 -2 12.667 -6 20 -12c17.333 -13.333 26 -32.333 26 -57c0 -20 -7 -37 -21 -51c-14.667 -13.333 -31.667 -20 -51 -20c-16.667 0 -31.334 5.66699 -44.001 17c-12 11.333 -20 23 -24 35h-20
c12.667 -46.667 42 -70 88 -70c27.333 0 49.333 8.33301 66 25c17.333 16 26 37.333 26 64z" />
    <glyph glyph-name="Omega" unicode="&#xe007;" 
d="M297 656c0 25.333 -9.33105 46 -27.998 62c-19.333 16 -41.333 24 -66 24c-22.667 0 -43.334 -7.33301 -62.001 -22c-18 -13.333 -28.667 -31.333 -32 -54h20c12.667 38.667 37.334 58 74.001 58c19.333 0 36.666 -6.66699 51.999 -20c15.333 -12 23 -28 23 -48
c0 -18 -6.33301 -36.667 -19 -56l-157 -182h194v18h-154l93 105c23.333 26.667 37.666 44 42.999 52c12.667 21.333 19 42.333 19 63z" />
    <glyph glyph-name="radical" unicode="&#xe008;" horiz-adv-x="572" 
d="M305 142l0.000976562 572h-41v-570c0 -74 -25 -111 -75 -111c-32.667 0 -57.334 15.333 -74.001 46l-35 -22c23.333 -43.333 60 -65 110 -65c76.667 0 115 50 115 150zM189.001 615c0 22 -8.33301 41.333 -25 58s-36 25 -58 25s-41.333 -8.33301 -58 -25s-25 -36 -25 -58
s8.33301 -41.333 25 -58s36 -25 58 -25s41.333 8.33301 58 25s25 36 25 58zM168.001 616c0 -16 -6.33301 -30.333 -19 -43s-27 -19 -43 -19s-30.333 6.33301 -43 19s-19 27 -19 43s6.33301 30.333 19 43s27 19 43 19s30.333 -6.33301 43 -19s19 -27 19 -43zM549.001 615
c0 22 -8.33301 41.333 -25 58s-36 25 -58 25s-41.333 -8.33301 -58 -25s-25 -36 -25 -58s8.33301 -41.333 25 -58s36 -25 58 -25s41.333 8.33301 58 25s25 36 25 58zM528.001 616c0 -16 -6.33301 -30.333 -19 -43s-27 -19 -43 -19s-30.333 6.33301 -43 19s-19 27 -19 43
s6.33301 30.333 19 43s27 19 43 19s30.333 -6.33301 43 -19s19 -27 19 -43zM94.001 599c0 -6 2.16699 -11.167 6.5 -15.5s9.5 -6.5 15.5 -6.5s11.167 2.16699 15.5 6.5s6.5 9.5 6.5 15.5s-2.16699 11.167 -6.5 15.5s-9.5 6.5 -15.5 6.5s-11.167 -2.16699 -15.5 -6.5
s-6.5 -9.5 -6.5 -15.5zM455.001 596c0 -6 2.16699 -11.167 6.5 -15.5s9.5 -6.5 15.5 -6.5s11.167 2.16699 15.5 6.5s6.5 9.5 6.5 15.5s-2.16699 11.167 -6.5 15.5s-9.5 6.5 -15.5 6.5s-11.167 -2.16699 -15.5 -6.5s-6.5 -9.5 -6.5 -15.5z" />
    <glyph glyph-name="approxequal" unicode="&#xe009;" horiz-adv-x="748" 
d="M24 -10h502v41h-426l433 657l-34 26zM289 515c0 22 -8.33301 41.333 -25 58s-36 25 -58 25s-41.333 -8.33301 -58 -25s-25 -36 -25 -58s8.33301 -41.333 25 -58s36 -25 58 -25s41.333 8.33301 58 25s25 36 25 58zM268 516c0 -16 -6.33301 -30.333 -19 -43
s-27 -19 -43 -19s-30.333 6.33301 -43 19s-19 27 -19 43s6.33301 30.333 19 43s27 19 43 19s30.333 -6.33301 43 -19s19 -27 19 -43zM649 515c0 22 -8.33301 41.333 -25 58s-36 25 -58 25s-41.333 -8.33301 -58 -25s-25 -36 -25 -58s8.33301 -41.333 25 -58s36 -25 58 -25
s41.333 8.33301 58 25s25 36 25 58zM628 516c0 -16 -6.33301 -30.333 -19 -43s-27 -19 -43 -19s-30.333 6.33301 -43 19s-19 27 -19 43s6.33301 30.333 19 43s27 19 43 19s30.333 -6.33301 43 -19s19 -27 19 -43zM194 499c0 -6 2.16699 -11.167 6.5 -15.5
s9.5 -6.5 15.5 -6.5s11.167 2.16699 15.5 6.5s6.5 9.5 6.5 15.5s-2.16699 11.167 -6.5 15.5s-9.5 6.5 -15.5 6.5s-11.167 -2.16699 -15.5 -6.5s-6.5 -9.5 -6.5 -15.5zM555 496c0 -6 2.16699 -11.167 6.5 -15.5s9.5 -6.5 15.5 -6.5s11.167 2.16699 15.5 6.5s6.5 9.5 6.5 15.5
s-2.16699 11.167 -6.5 15.5s-9.5 6.5 -15.5 6.5s-11.167 -2.16699 -15.5 -6.5s-6.5 -9.5 -6.5 -15.5zM486 -139l-18 22c-24.667 -24.667 -53 -37 -85 -37c-34.667 0 -65 13 -91 39l-21 -24c27.333 -29.333 63.333 -44 108 -44c46 0 81.667 14.667 107 44z" />
    <glyph glyph-name="nonbreakingspace" unicode="&#xe00a;" horiz-adv-x="276" 
 />
    <glyph glyph-name="lozenge" unicode="&#xe00b;" horiz-adv-x="572" 
d="M189 615c0 22 -8.33301 41.333 -25 58s-36 25 -58 25s-41.333 -8.33301 -58 -25s-25 -36 -25 -58s8.33301 -41.333 25 -58s36 -25 58 -25s41.333 8.33301 58 25s25 36 25 58zM168 616c0 -16 -6.33301 -30.333 -19 -43s-27 -19 -43 -19s-30.333 6.33301 -43 19
s-19 27 -19 43s6.33301 30.333 19 43s27 19 43 19s30.333 -6.33301 43 -19s19 -27 19 -43zM549 615c0 22 -8.33301 41.333 -25 58s-36 25 -58 25s-41.333 -8.33301 -58 -25s-25 -36 -25 -58s8.33301 -41.333 25 -58s36 -25 58 -25s41.333 8.33301 58 25s25 36 25 58z
M528 616c0 -16 -6.33301 -30.333 -19 -43s-27 -19 -43 -19s-30.333 6.33301 -43 19s-19 27 -19 43s6.33301 30.333 19 43s27 19 43 19s30.333 -6.33301 43 -19s19 -27 19 -43zM94 599c0 -6 2.16699 -11.167 6.5 -15.5s9.5 -6.5 15.5 -6.5s11.167 2.16699 15.5 6.5
s6.5 9.5 6.5 15.5s-2.16699 11.167 -6.5 15.5s-9.5 6.5 -15.5 6.5s-11.167 -2.16699 -15.5 -6.5s-6.5 -9.5 -6.5 -15.5zM455 596c0 -6 2.16699 -11.167 6.5 -15.5s9.5 -6.5 15.5 -6.5s11.167 2.16699 15.5 6.5s6.5 9.5 6.5 15.5s-2.16699 11.167 -6.5 15.5
s-9.5 6.5 -15.5 6.5s-11.167 -2.16699 -15.5 -6.5s-6.5 -9.5 -6.5 -15.5z" />
    </font>
</defs>
</svg>
